<svg width="821" height="960" viewBox="0 0 821 960" fill="none" xmlns="http://www.w3.org/2000/svg">
<g opacity="0.5">
<path d="M694.521 853.563C691.492 858.852 684.748 860.683 679.46 857.653L642.576 836.522C637.287 833.492 635.456 826.748 638.486 821.46L659.617 784.576C662.647 779.288 669.391 777.457 674.679 780.487L711.563 801.618C716.851 804.648 718.682 811.391 715.653 816.68L694.521 853.563Z" fill="#32BA46"/>
<path d="M664.776 840.527C661.022 838.376 657.907 835.273 655.726 831.517L645.715 829.607L652.507 821.738C651.931 816.503 652.998 811.349 655.616 806.779C662.395 794.947 677.532 790.84 689.365 797.619C701.197 804.398 705.308 819.537 698.531 831.365C691.744 843.193 676.605 847.304 664.776 840.527ZM658.12 828.223L658.536 829.001C660.403 832.496 663.192 835.38 666.605 837.335C676.677 843.106 689.564 839.607 695.335 829.534C701.103 819.466 697.604 806.579 687.532 800.808C677.46 795.038 664.576 798.54 658.808 808.608C656.46 812.706 655.578 817.356 656.258 822.056L656.377 822.887L652.666 827.186L658.12 828.223Z" fill="white"/>
<path d="M670.961 804.622C670.961 804.622 673.48 803.145 674.579 803.605C675.677 804.065 676.998 804.822 676.97 805.7C676.944 806.573 676.3 811.387 676.3 811.387C676.3 811.387 676.188 812.21 675.395 812.623C674.606 813.032 673.121 813.435 673.121 813.435C673.121 813.435 672.213 813.802 672.329 814.817C672.445 815.832 672.508 817.606 673.226 820.252C673.941 822.895 676.479 825.941 676.479 825.941C676.479 825.941 676.907 826.268 677.366 826.144C677.824 826.019 680.562 824.94 680.562 824.94C680.562 824.94 681.453 824.573 682.079 825.449C682.705 826.326 685.333 830.261 685.333 830.261C685.333 830.261 685.674 830.664 685.301 831.317C684.929 831.965 683.755 833.406 682.909 833.636C682.064 833.865 679.543 834.623 677.18 833.269C674.817 831.915 670.296 826.774 669.015 822.057C667.738 817.342 666.815 812.781 667.774 809.652C668.731 806.516 669.532 805.318 670.961 804.622Z" fill="white"/>
</g>
<g opacity="0.5">
<path d="M202.942 322.826C205.767 329.067 202.998 336.416 196.757 339.241L153.231 358.942C146.99 361.767 139.641 358.998 136.816 352.757L117.115 309.231C114.29 302.991 117.059 295.641 123.3 292.816L166.826 273.115C173.067 270.29 180.416 273.06 183.241 279.3L202.942 322.826Z" fill="#318BF4"/>
<path d="M179.574 347.019L168.084 321.634L176.605 317.777L173.404 307.303L163.605 311.738L160.745 305.42C159.448 302.554 159.358 300.243 163.469 298.383L168.708 296.011L164.702 287.161C163.741 287.45 160.513 288.59 156.891 290.23C149.338 293.648 146.254 300.598 150.087 309.066L153.389 316.362L144.844 320.23L149.323 330.126L157.868 326.258L169.361 351.647L179.576 347.023L179.574 347.019Z" fill="white"/>
</g>
</svg>
