<svg width="56" height="16" viewBox="0 0 56 16" fill="none" xmlns="http://www.w3.org/2000/svg">
<path d="M2.78759 11.6634C2.22781 11.425 1.78501 11.0798 1.46752 10.636C1.15004 10.1922 0.982941 9.67434 0.982941 9.08255H2.82101C2.86278 9.52639 3.03823 9.88804 3.35572 10.1757C3.6732 10.4634 4.11601 10.6031 4.68414 10.6031C5.27733 10.6031 5.73685 10.4634 6.07104 10.1839C6.40524 9.90448 6.56398 9.54283 6.56398 9.09899C6.56398 8.75377 6.46372 8.47432 6.25485 8.2524C6.04598 8.0387 5.79534 7.86609 5.48621 7.75102C5.17708 7.63595 4.75933 7.50444 4.21627 7.36471C3.53117 7.18389 2.97975 7.00306 2.55365 6.82224C2.12756 6.64142 1.7683 6.35374 1.46752 5.97565C1.16675 5.58935 1.01636 5.07975 1.01636 4.43864C1.01636 3.84685 1.16675 3.32904 1.46752 2.8852C1.7683 2.44135 2.18604 2.10436 2.7291 1.866C3.27217 1.62764 3.89878 1.51257 4.60894 1.51257C5.61988 1.51257 6.45537 1.75915 7.09869 2.26053C7.74201 2.76191 8.10127 3.44411 8.17646 4.30713H6.27991C6.24649 3.92905 6.07104 3.60849 5.73685 3.34548C5.40266 3.08246 4.9682 2.94273 4.42514 2.94273C3.9322 2.94273 3.53117 3.06602 3.22204 3.3126C2.91291 3.55918 2.75417 3.91261 2.75417 4.38111C2.75417 4.69344 2.85443 4.95646 3.04659 5.16194C3.23875 5.36742 3.4894 5.52359 3.79017 5.63866C4.09094 5.75373 4.50033 5.88524 5.02669 6.02497C5.72014 6.21401 6.27991 6.40306 6.71437 6.58388C7.14882 6.77292 7.52479 7.0606 7.82556 7.44691C8.13469 7.83321 8.28508 8.35925 8.28508 9.00857C8.28508 9.53461 8.14305 10.0278 7.85898 10.488C7.57492 10.9483 7.15717 11.3264 6.61411 11.6059C6.07104 11.8853 5.41936 12.0251 4.68414 12.0251C3.98233 12.0251 3.34736 11.9018 2.78759 11.6634Z" fill="#465364" fill-opacity="0.8"/>
<path d="M13.2228 4.01949C13.7241 3.76469 14.2922 3.63318 14.9188 3.63318C15.6373 3.63318 16.2974 3.80578 16.8989 4.15921C17.4921 4.51264 17.96 4.99758 18.3025 5.63047C18.6451 6.26335 18.8122 6.98665 18.8122 7.80858C18.8122 8.63051 18.6451 9.36203 18.3025 10.0031C17.96 10.6525 17.4921 11.1538 16.8989 11.5155C16.3057 11.8771 15.6457 12.058 14.9188 12.058C14.2839 12.058 13.7241 11.9347 13.2311 11.6799C12.7382 11.4251 12.3372 11.1127 12.0281 10.7429V15.806H10.3153V3.76469H12.0281V4.96471C12.3288 4.58662 12.7215 4.27428 13.2228 4.01949ZM16.7235 6.34555C16.4895 5.93458 16.1804 5.62225 15.7877 5.41677C15.4034 5.20307 14.9857 5.09621 14.5512 5.09621C14.1168 5.09621 13.7074 5.20306 13.3231 5.42499C12.9387 5.64691 12.6296 5.95924 12.3873 6.37021C12.1534 6.78117 12.0364 7.27433 12.0364 7.83324C12.0364 8.39215 12.1534 8.88531 12.3873 9.3045C12.6212 9.72368 12.9304 10.0442 13.3231 10.2579C13.7074 10.4716 14.1168 10.5867 14.5512 10.5867C14.994 10.5867 15.4034 10.4799 15.7877 10.2579C16.1721 10.036 16.4812 9.71546 16.7235 9.28806C16.9574 8.86065 17.0744 8.3675 17.0744 7.80858C17.0744 7.24967 16.9574 6.75651 16.7235 6.34555Z" fill="#465364" fill-opacity="0.8"/>
<path d="M20.6085 2.37563C20.3996 2.17015 20.291 1.91535 20.291 1.60301C20.291 1.29068 20.3996 1.0441 20.6085 0.8304C20.8173 0.616698 21.0763 0.518066 21.3938 0.518066C21.6946 0.518066 21.9536 0.624917 22.1625 0.8304C22.3713 1.03588 22.48 1.29068 22.48 1.60301C22.48 1.91535 22.3713 2.17015 22.1625 2.37563C21.9536 2.58111 21.6946 2.68796 21.3938 2.68796C21.0847 2.68796 20.8173 2.58111 20.6085 2.37563ZM22.2377 3.76469V11.9182H20.5249V3.76469H22.2377Z" fill="#465364" fill-opacity="0.8"/>
<path d="M24.435 5.63044C24.7775 4.99755 25.2538 4.50439 25.847 4.15918C26.4402 3.81397 27.1085 3.63315 27.8354 3.63315C28.3785 3.63315 28.9132 3.74822 29.4395 3.97836C29.9659 4.2085 30.3836 4.52083 30.6928 4.89892V0.970093H32.4222V11.9182H30.6928V10.6935C30.4087 11.0881 30.0244 11.4168 29.5231 11.6716C29.0302 11.9264 28.4537 12.0579 27.8187 12.0579C27.1002 12.0579 26.4401 11.8771 25.8386 11.5155C25.2454 11.1538 24.7692 10.6524 24.4266 10.0031C24.0841 9.35378 23.9086 8.62226 23.9086 7.80855C23.9086 6.99484 24.0924 6.26332 24.435 5.63044ZM30.3502 6.37017C30.1163 5.95921 29.8072 5.63866 29.4228 5.42495C29.0385 5.21125 28.6291 5.09618 28.1863 5.09618C27.7435 5.09618 27.3341 5.20303 26.9498 5.41673C26.5655 5.63044 26.2647 5.94277 26.0224 6.34552C25.7885 6.75648 25.6715 7.24142 25.6715 7.80033C25.6715 8.35924 25.7885 8.8524 26.0224 9.2798C26.2563 9.70721 26.5655 10.0278 26.9582 10.2497C27.3508 10.4716 27.7519 10.5785 28.1863 10.5785C28.6291 10.5785 29.0385 10.4716 29.4228 10.2497C29.8072 10.036 30.1163 9.71543 30.3502 9.29624C30.5842 8.87706 30.7011 8.3839 30.7011 7.82499C30.7011 7.2743 30.5842 6.78114 30.3502 6.37017Z" fill="#465364" fill-opacity="0.8"/>
<path d="M42.2225 8.47435H35.8895C35.9396 9.12367 36.1819 9.64971 36.6247 10.0442C37.0675 10.4388 37.6106 10.636 38.2455 10.636C39.1646 10.636 39.8163 10.2579 40.2006 9.49354H42.047C41.7964 10.2415 41.3452 10.8579 40.6852 11.3347C40.0251 11.8114 39.2147 12.0497 38.2455 12.0497C37.4518 12.0497 36.7417 11.8771 36.1151 11.5237C35.4884 11.1703 34.9955 10.6771 34.6446 10.0442C34.2853 9.41135 34.1099 8.67161 34.1099 7.83324C34.1099 6.99487 34.2853 6.25514 34.6279 5.62225C34.9704 4.98936 35.4634 4.49621 36.09 4.15099C36.7166 3.80578 37.4351 3.63318 38.2455 3.63318C39.0309 3.63318 39.7243 3.79756 40.3343 4.13456C40.9442 4.47155 41.4204 4.94005 41.7629 5.54828C42.1055 6.1565 42.2726 6.85514 42.2726 7.6442C42.2809 7.94831 42.2642 8.22777 42.2225 8.47435ZM40.493 7.10994C40.4846 6.48528 40.2591 5.99212 39.8163 5.61403C39.3734 5.23594 38.8304 5.05512 38.1787 5.05512C37.5855 5.05512 37.0842 5.24416 36.6581 5.61403C36.2404 5.9839 35.9897 6.48528 35.9062 7.11816H40.493V7.10994Z" fill="#465364" fill-opacity="0.8"/>
<path d="M46.684 3.97839C47.1017 3.74825 47.5946 3.63318 48.1628 3.63318V5.37567H47.7283C47.0599 5.37567 46.5503 5.54006 46.1994 5.87705C45.8568 6.21404 45.6814 6.79761 45.6814 7.61954V11.91H43.9686V3.76469H45.6814V4.94827C45.932 4.5373 46.2662 4.21675 46.684 3.97839Z" fill="#465364" fill-opacity="0.8"/>
<path d="M50.9951 11.7045C50.4771 11.4744 50.0677 11.1538 49.7669 10.7593C49.4661 10.3566 49.3074 9.91272 49.2823 9.41957H51.0535C51.087 9.76478 51.2541 10.0525 51.5548 10.2826C51.864 10.5127 52.2399 10.6278 52.7078 10.6278C53.1924 10.6278 53.56 10.5374 53.8273 10.3566C54.0947 10.1757 54.2284 9.93738 54.2284 9.65793C54.2284 9.35381 54.078 9.12367 53.7856 8.97572C53.4932 8.82778 53.0169 8.66339 52.382 8.49079C51.7637 8.3264 51.2541 8.16201 50.8614 8.00585C50.4687 7.84968 50.1345 7.6031 49.8421 7.28255C49.558 6.95378 49.416 6.52637 49.416 5.99212C49.416 5.55649 49.5497 5.16197 49.8087 4.80032C50.0677 4.43867 50.4436 4.15921 50.9282 3.94551C51.4128 3.73181 51.9726 3.63318 52.6075 3.63318C53.5516 3.63318 54.3119 3.87154 54.8884 4.33182C55.4649 4.80032 55.774 5.44143 55.8158 6.24692H54.1031C54.0696 5.88527 53.9193 5.58937 53.6519 5.37567C53.3845 5.16197 53.0169 5.0469 52.5574 5.0469C52.1063 5.0469 51.7637 5.12909 51.5214 5.3017C51.2791 5.4743 51.1622 5.688 51.1622 5.96746C51.1622 6.18116 51.2457 6.37021 51.4044 6.51815C51.5632 6.6661 51.7637 6.78117 51.9893 6.86336C52.2232 6.94556 52.5574 7.05241 53.0086 7.18392C53.6101 7.34008 54.1031 7.50447 54.4874 7.66064C54.8717 7.82502 55.2059 8.06338 55.49 8.37571C55.774 8.68805 55.9161 9.10723 55.9244 9.63327C55.9244 10.0935 55.7907 10.5127 55.5317 10.8744C55.2727 11.236 54.9051 11.5237 54.4289 11.7292C53.9527 11.9347 53.3929 12.0415 52.7496 12.0415C52.0979 12.0497 51.5131 11.9347 50.9951 11.7045Z" fill="#465364" fill-opacity="0.8"/>
</svg>
