<svg width="50" height="13" viewBox="0 0 50 13" fill="none" xmlns="http://www.w3.org/2000/svg">
<path d="M3.40063 9.56478C2.30516 6.49518 1.17546 3.45981 0.000106812 0.43585C0.42232 0.447261 0.776066 0.447261 1.03852 0.447261C1.33521 0.447261 1.67755 0.447261 2.07694 0.43585L3.94837 5.97026L4.73574 8.1498C4.90691 7.81887 5.15795 7.29396 5.50029 6.56364C5.84262 5.83333 6.08226 5.29701 6.2306 4.95467C6.0252 4.32706 5.76274 3.57392 5.45464 2.68385C5.14654 1.79378 4.86126 1.05205 4.63304 0.43585C5.00961 0.447261 5.34053 0.447261 5.62581 0.447261C5.94532 0.447261 6.27625 0.447261 6.61858 0.43585C6.82398 1.24604 7.06362 2.04482 7.31466 2.83219C7.69123 2.022 8.03356 1.22322 8.34167 0.43585C8.72964 0.447261 9.03775 0.447261 9.27738 0.447261C9.55125 0.447261 9.85935 0.447261 10.2131 0.43585C9.92782 1.00641 9.57407 1.73672 9.15186 2.62679C8.72964 3.51686 8.38731 4.25859 8.13626 4.84056C8.23896 5.16007 8.42154 5.70781 8.684 6.47236C8.95787 7.2369 9.15186 7.78464 9.27738 8.09274L11.0689 4.27L12.3698 1.4058L12.792 0.424438C13.2256 0.43585 13.568 0.43585 13.819 0.43585C14.1043 0.43585 14.4466 0.43585 14.8574 0.424438L13.6022 2.92348L10.9776 8.30955L10.3843 9.55337C9.90499 9.54196 9.49419 9.54196 9.16327 9.54196C8.80952 9.54196 8.39872 9.54196 7.93086 9.55337C7.66841 8.65189 7.37172 7.77323 7.06362 6.90598C6.6414 7.77323 6.24201 8.65189 5.86545 9.55337C5.38618 9.54196 4.97537 9.54196 4.63304 9.54196C4.26788 9.55337 3.85708 9.56478 3.40063 9.56478Z" fill="#465364" fill-opacity="0.8"/>
<path d="M15.5421 4.25862C15.5992 3.93911 15.6448 3.71089 15.6562 3.58536C15.6676 3.45984 15.7019 3.25444 15.7361 2.99198C16.3409 2.85505 16.8772 2.75235 17.3451 2.69529C17.8129 2.63824 18.258 2.604 18.6916 2.604C19.1823 2.604 19.6273 2.66106 20.0381 2.77517C20.4489 2.88928 20.7684 3.07186 20.9966 3.32291C21.2249 3.57395 21.339 3.9277 21.339 4.39556C21.339 4.6466 21.3047 5.29704 21.2363 6.33546C21.1678 7.37387 21.1222 8.44652 21.1108 9.56482C20.7684 9.5534 20.4603 9.5534 20.175 9.5534C19.9012 9.5534 19.5817 9.5534 19.2165 9.56482C19.2736 9.02849 19.3192 8.40088 19.3534 7.69338L19.4447 6.02735C19.2736 6.14146 19.148 6.22134 19.0567 6.26699C18.9655 6.31263 18.8628 6.35828 18.7601 6.39251C18.6459 6.42674 18.452 6.4838 18.1667 6.56368C17.8814 6.64356 17.6646 6.71202 17.4934 6.76908C17.3223 6.82613 17.1739 6.8946 17.037 6.96307C16.9 7.03154 16.7859 7.12283 16.6946 7.21411C16.6033 7.3054 16.5349 7.39669 16.4892 7.49939C16.4436 7.60209 16.4208 7.70479 16.4208 7.81891C16.4208 8.00148 16.4778 8.17265 16.5805 8.29817C16.6832 8.4237 16.8316 8.5264 16.9913 8.58345C17.1511 8.64051 17.3451 8.66333 17.5733 8.66333C17.7102 8.66333 17.87 8.65192 18.0297 8.6291C18.1895 8.60628 18.4063 8.54922 18.6688 8.45793C18.5775 8.70898 18.4634 9.08555 18.3378 9.59905C18.0183 9.6561 17.7673 9.69034 17.5847 9.70175C17.4021 9.71316 17.2195 9.72457 17.0598 9.72457C16.5006 9.72457 16.0328 9.64469 15.679 9.49635C15.3253 9.348 15.0514 9.10837 14.8803 8.77744C14.7091 8.44652 14.6178 8.1156 14.6178 7.78467C14.6178 7.59068 14.652 7.4081 14.7205 7.21411C14.789 7.02012 14.8803 6.86037 15.0172 6.70061C15.1541 6.54086 15.3139 6.39251 15.5193 6.24416C15.7247 6.09582 16.0214 5.95889 16.4094 5.82195C16.7973 5.68502 17.3108 5.54808 17.9499 5.41115C18.121 5.37692 18.2922 5.33127 18.4748 5.28563C18.6574 5.23998 18.8057 5.18293 18.9084 5.13728C19.0111 5.09164 19.1138 5.02317 19.1937 4.94329C19.2736 4.86341 19.3306 4.78354 19.3763 4.70366C19.4219 4.62378 19.4333 4.53249 19.4333 4.4412C19.4333 4.27003 19.3763 4.12169 19.2621 3.99617C19.148 3.87064 18.9997 3.79077 18.8171 3.74512C18.6345 3.69948 18.4405 3.67665 18.2237 3.67665C17.425 3.67665 16.5235 3.87064 15.5421 4.25862Z" fill="#465364" fill-opacity="0.8"/>
<path d="M22.6284 12.6344C22.7426 11.3905 22.8453 9.78157 22.9251 7.79603C23.0164 5.82189 23.0621 4.21292 23.0621 2.98051C23.9065 2.83217 24.5683 2.72947 25.0248 2.68382C25.4927 2.63818 25.9491 2.61536 26.4055 2.61536C27.0103 2.61536 27.5581 2.68382 28.0602 2.83217C28.5623 2.9691 28.9617 3.20874 29.2583 3.55107C29.555 3.89341 29.7833 4.26998 29.9316 4.71501C30.0799 5.16005 30.1484 5.61649 30.1484 6.09576C30.1484 6.58644 30.0799 7.0543 29.943 7.49933C29.8061 7.94437 29.5893 8.35517 29.304 8.70892C29.0187 9.06266 28.6878 9.32512 28.3112 9.49629C27.9346 9.65604 27.5238 9.73592 27.0788 9.73592C26.8164 9.73592 26.5539 9.70169 26.3028 9.64463C26.0518 9.58758 25.8236 9.49629 25.6296 9.39359C25.4356 9.29089 25.2758 9.18819 25.1503 9.08549C25.0248 8.98279 24.865 8.82303 24.671 8.61763L24.5683 11.5275L24.5798 11.9725C24.5798 12.0296 24.5683 12.2578 24.5683 12.6458C24.1575 12.6458 23.838 12.6344 23.6212 12.6344H22.6284ZM24.9107 4.21292C24.8764 4.45255 24.8536 4.65795 24.8422 4.82912L24.7966 5.57085C24.7738 5.89036 24.7738 6.13 24.7738 6.27834C24.7738 6.55221 24.7966 6.81466 24.8536 7.0543C24.9107 7.30534 25.0248 7.53357 25.1846 7.73897C25.3443 7.94437 25.5497 8.10413 25.7779 8.21824C26.0062 8.33235 26.2458 8.378 26.4854 8.378C26.8278 8.378 27.1359 8.28671 27.4097 8.09272C27.6836 7.89873 27.9004 7.61345 28.0602 7.23688C28.2199 6.86031 28.2884 6.46092 28.2884 6.03871C28.2884 5.57085 28.2085 5.17146 28.0373 4.85194C27.8662 4.53243 27.6494 4.2928 27.3641 4.14445C27.0788 3.99611 26.7593 3.92764 26.4055 3.92764C25.9605 3.95046 25.447 4.03034 24.9107 4.21292Z" fill="#465364" fill-opacity="0.8"/>
<path d="M31.3009 9.56479L31.4379 7.83029L31.5862 4.49823L31.6547 1.64544C31.6661 1.13194 31.6661 0.732545 31.6661 0.447266C32.1339 0.458677 32.4649 0.458677 32.6589 0.458677C32.8871 0.458677 33.1952 0.458677 33.5717 0.447266L33.4348 2.61539L33.2751 6.08438L33.2066 8.67472L33.1952 9.5762C32.7958 9.56479 32.4877 9.56479 32.2595 9.56479C32.0198 9.55338 31.7003 9.56479 31.3009 9.56479ZM33.4348 5.76487L34.7927 4.11025C34.9068 3.97332 35.0438 3.79074 35.2035 3.58534C35.3633 3.37994 35.5687 3.10607 35.8197 2.77514C36.2876 2.78655 36.6185 2.78655 36.8353 2.78655C37.132 2.78655 37.4972 2.78655 37.9536 2.77514L35.7513 5.29701L35.3519 5.77628C35.6828 6.28978 36.5843 7.55642 38.0677 9.5762C37.6684 9.56479 37.326 9.56479 37.0407 9.56479C36.7555 9.56479 36.4017 9.56479 35.9795 9.5762C35.717 9.15398 35.5116 8.81165 35.3519 8.5606C35.1921 8.30956 35.0438 8.08134 34.8954 7.88735L33.7543 6.26696C33.7201 6.2099 33.606 6.03874 33.4348 5.76487Z" fill="#465364" fill-opacity="0.8"/>
<path d="M38.8209 9.56476C38.8893 8.89151 38.935 8.33236 38.9578 7.88732C39.0035 7.17983 39.0377 6.34682 39.0719 5.42251C39.1062 4.49821 39.129 3.60813 39.1404 2.76371C39.574 2.77512 39.9049 2.77512 40.1218 2.77512C40.3157 2.77512 40.6467 2.77512 41.0917 2.76371C41.0346 3.53967 40.9776 4.28139 40.9434 4.98889C40.9205 5.69638 40.8863 6.49516 40.8749 7.40805C40.8635 8.32095 40.8521 9.03985 40.8521 9.56476C40.4413 9.55335 40.1218 9.55335 39.8707 9.55335C39.6425 9.55335 39.2887 9.56476 38.8209 9.56476ZM39.186 1.59977C39.2089 1.14332 39.2089 0.789577 39.2089 0.538531V0.33313C39.6197 0.344541 39.9392 0.344541 40.2016 0.344541C40.544 0.344541 40.8749 0.344541 41.1716 0.33313C41.1602 0.447242 41.1488 0.572765 41.1488 0.709699L41.1145 1.59977C40.7722 1.58836 40.4641 1.58836 40.1788 1.58836C39.8935 1.58836 39.5626 1.59977 39.186 1.59977Z" fill="#465364" fill-opacity="0.8"/>
<path d="M49.3762 9.56473C48.9882 9.55332 48.6801 9.55331 48.4747 9.55331C48.2123 9.55331 47.9156 9.55332 47.5732 9.56473L47.5847 8.45784C47.4591 8.64042 47.345 8.80018 47.2537 8.91429C47.1624 9.0284 47.0369 9.14251 46.8886 9.24521C46.7402 9.34791 46.5691 9.4392 46.3979 9.50767C46.2267 9.57614 46.0213 9.62178 45.7817 9.66743C45.5535 9.71307 45.3138 9.73589 45.0514 9.73589C44.5493 9.73589 44.1157 9.66743 43.7505 9.51908C43.3854 9.37074 43.0887 9.15392 42.8718 8.85723C42.655 8.56054 42.5523 8.13833 42.5523 7.59059V7.45366L42.655 5.73057L42.7577 3.45975C42.7577 3.27717 42.7692 3.04895 42.7692 2.77508C43.1914 2.78649 43.5223 2.78649 43.7619 2.78649C44.013 2.78649 44.3211 2.78649 44.6862 2.77508L44.4694 5.82186C44.458 6.0615 44.4466 6.25549 44.4352 6.41524C44.4238 6.575 44.4238 6.70052 44.4238 6.76899C44.4238 7.0885 44.4694 7.35096 44.5721 7.56777C44.6748 7.78458 44.8346 7.94434 45.0742 8.04704C45.3138 8.16115 45.5649 8.21821 45.8387 8.21821C46.1012 8.21821 46.3408 8.17256 46.5691 8.06986C46.7745 7.97857 46.957 7.85305 47.1054 7.6933C47.2537 7.53354 47.3793 7.31673 47.482 7.04286C47.5618 6.84887 47.6189 6.575 47.6531 6.23267C47.6874 5.99303 47.7102 5.57082 47.7444 4.96603C47.7787 4.24712 47.8015 3.5054 47.8243 2.76367C48.2693 2.77508 48.6003 2.77508 48.8399 2.77508C49.1023 2.77508 49.399 2.77508 49.73 2.76367C49.6729 3.4027 49.6158 4.20148 49.5588 5.14861C49.5017 6.09573 49.4561 6.89451 49.4447 7.51072C49.399 8.14974 49.3876 8.823 49.3762 9.56473Z" fill="#465364" fill-opacity="0.8"/>
</svg>
