<svg width="51" height="11" viewBox="0 0 51 11" fill="none" xmlns="http://www.w3.org/2000/svg">
<path d="M0.739474 2.52969C1.18629 1.7654 1.79773 1.17748 2.56203 0.742416C3.32633 0.319113 4.17293 0.0957031 5.07833 0.0957031C6.12483 0.0957031 7.05374 0.354388 7.86507 0.86C8.6764 1.37737 9.26433 2.09463 9.64059 3.03531H7.71222C7.45353 2.51794 7.10078 2.12991 6.65396 1.88298C6.20714 1.6243 5.67801 1.50671 5.09009 1.50671C4.44338 1.50671 3.86721 1.64781 3.34984 1.94177C2.84423 2.23573 2.44444 2.64728 2.16224 3.19992C1.88004 3.74081 1.72718 4.37576 1.72718 5.10479C1.72718 5.83381 1.86828 6.46876 2.16224 7.00965C2.4562 7.55054 2.84423 7.97384 3.34984 8.2678C3.85545 8.56176 4.43162 8.71462 5.09009 8.71462C5.67801 8.71462 6.20714 8.58528 6.65396 8.33835C7.10078 8.09142 7.45353 7.7034 7.71222 7.18603H9.64059C9.27608 8.1267 8.68816 8.85572 7.86507 9.36133C7.05374 9.86694 6.12483 10.1256 5.07833 10.1256C4.16117 10.1256 3.31457 9.91398 2.55027 9.47892C1.78597 9.05561 1.18629 8.45593 0.739474 7.69164C0.292654 6.92734 0.0692444 6.06898 0.0692444 5.10479C0.0692444 4.1406 0.292654 3.29399 0.739474 2.52969Z" fill="#465364" fill-opacity="0.8"/>
<path d="M14.0618 2.45912C14.4498 2.23571 14.9201 2.12988 15.4493 2.12988V3.79958H15.0377C14.4028 3.79958 13.9324 3.9642 13.6032 4.28167C13.274 4.59915 13.1211 5.15179 13.1211 5.95137V10.0433H11.5102V2.25923H13.1211V3.38803C13.3563 2.98825 13.6737 2.68253 14.0618 2.45912Z" fill="#465364" fill-opacity="0.8"/>
<path d="M23.9976 6.75102H18.0596C18.1067 7.37422 18.3418 7.86807 18.7534 8.24434C19.1649 8.62061 19.6705 8.80874 20.282 8.80874C21.1521 8.80874 21.7635 8.44423 22.1163 7.72697H23.8565C23.6213 8.44423 23.198 9.03215 22.5748 9.47897C21.9634 9.93755 21.1991 10.161 20.282 10.161C19.5412 10.161 18.8709 9.99634 18.283 9.65535C17.6951 9.32611 17.2365 8.85578 16.8955 8.24434C16.5545 7.6329 16.3899 6.93915 16.3899 6.13958C16.3899 5.34001 16.5545 4.63451 16.872 4.03483C17.2013 3.42339 17.6481 2.96481 18.236 2.63558C18.8239 2.30634 19.4941 2.14172 20.2584 2.14172C20.9875 2.14172 21.6459 2.30634 22.2221 2.62382C22.7983 2.9413 23.2451 3.38812 23.5626 3.97604C23.88 4.5522 24.0446 5.22243 24.0446 5.97497C24.0564 6.24541 24.0329 6.50409 23.9976 6.75102ZM22.375 5.44584C22.3632 4.85792 22.1515 4.37582 21.74 4.02307C21.3285 3.67032 20.8111 3.48218 20.1996 3.48218C19.647 3.48218 19.1649 3.65856 18.7769 4.01131C18.3771 4.36406 18.1419 4.84616 18.0714 5.44584H22.375Z" fill="#465364" fill-opacity="0.8"/>
<path d="M27.0195 9.65527C26.4316 9.32603 25.9613 8.85569 25.6203 8.24426C25.2793 7.63282 25.1147 6.93907 25.1147 6.1395C25.1147 5.35169 25.291 4.64618 25.632 4.03475C25.9848 3.42331 26.4551 2.95297 27.0548 2.62374C27.6545 2.2945 28.3247 2.12988 29.0772 2.12988C29.8298 2.12988 30.4882 2.2945 31.0997 2.62374C31.6994 2.95297 32.1815 3.42331 32.5224 4.03475C32.8634 4.64618 33.0398 5.35169 33.0398 6.1395C33.0398 6.92731 32.8634 7.63282 32.4989 8.24426C32.1462 8.85569 31.6523 9.32603 31.0409 9.66702C30.4295 9.99626 29.7475 10.1726 29.0067 10.1726C28.2777 10.1609 27.6074 9.99626 27.0195 9.65527ZM30.1708 8.46767C30.5353 8.26777 30.8292 7.97381 31.0526 7.57403C31.2761 7.17424 31.3936 6.7039 31.3936 6.1395C31.3936 5.5751 31.2878 5.093 31.0644 4.70498C30.8528 4.31695 30.5706 4.02299 30.206 3.82309C29.8533 3.6232 29.4653 3.52913 29.0537 3.52913C28.6422 3.52913 28.2541 3.6232 27.9014 3.82309C27.5486 4.02299 27.2664 4.31695 27.0665 4.70498C26.8549 5.093 26.7608 5.5751 26.7608 6.1395C26.7608 6.97435 26.9725 7.62106 27.4075 8.07964C27.8308 8.53822 28.3717 8.76163 29.0184 8.76163C29.4182 8.76163 29.8063 8.66756 30.1708 8.46767Z" fill="#465364" fill-opacity="0.8"/>
<path d="M40.2007 2.51791C40.6828 2.7766 41.0591 3.15286 41.3413 3.64672C41.6117 4.14057 41.7528 4.75201 41.7528 5.45751V10.0433H40.1537V5.69268C40.1537 4.99893 39.9773 4.45805 39.6363 4.09354C39.2835 3.71727 38.8132 3.54089 38.2135 3.54089C37.6139 3.54089 37.1318 3.72903 36.779 4.09354C36.4263 4.46981 36.2499 4.99893 36.2499 5.69268V10.0433H34.639V2.25923H36.2499V3.15286C36.5086 2.83539 36.8496 2.58846 37.2611 2.40033C37.6726 2.22395 38.1077 2.12988 38.5663 2.12988C39.166 2.12988 39.7186 2.25923 40.2007 2.51791Z" fill="#465364" fill-opacity="0.8"/>
<path d="M50.8656 6.75102H44.9276C44.9746 7.37422 45.2098 7.86807 45.6213 8.24434C46.0329 8.62061 46.5385 8.80874 47.1499 8.80874C48.0201 8.80874 48.6315 8.44423 48.9842 7.72697H50.7245C50.4893 8.44423 50.066 9.03215 49.4428 9.47897C48.8314 9.93755 48.0671 10.161 47.1499 10.161C46.4092 10.161 45.7389 9.99634 45.151 9.65535C44.5631 9.32611 44.1045 8.85578 43.7635 8.24434C43.4225 7.6329 43.2579 6.93915 43.2579 6.13958C43.2579 5.34001 43.4225 4.63451 43.74 4.03483C44.0692 3.42339 44.5161 2.96481 45.104 2.63558C45.6919 2.30634 46.3621 2.14172 47.1264 2.14172C47.8554 2.14172 48.5139 2.30634 49.0901 2.62382C49.6662 2.9413 50.113 3.38812 50.4305 3.97604C50.748 4.5522 50.9126 5.22243 50.9126 5.97497C50.9244 6.24541 50.9009 6.50409 50.8656 6.75102ZM49.2429 5.44584C49.2312 4.85792 49.0195 4.37582 48.608 4.02307C48.1964 3.67032 47.6791 3.48218 47.0676 3.48218C46.515 3.48218 46.0329 3.65856 45.6449 4.01131C45.2451 4.36406 45.0099 4.84616 44.9394 5.44584H49.2429Z" fill="#465364" fill-opacity="0.8"/>
</svg>
