<svg width="146" height="28" viewBox="0 0 146 28" fill="none" xmlns="http://www.w3.org/2000/svg">
<path d="M0.865385 1.76755C1.34334 1.76755 1.7308 1.37358 1.7308 0.887573C1.7308 0.401563 1.34334 0.00756836 0.865385 0.00756836C0.387432 0.00756836 0 0.401563 0 0.887573C0 1.37358 0.387432 1.76755 0.865385 1.76755Z" fill="white"/>
<path d="M9.35223 1.76755C9.83018 1.76755 10.2176 1.37358 10.2176 0.887573C10.2176 0.401563 9.83018 0.00756836 9.35223 0.00756836C8.87428 0.00756836 8.48682 0.401563 8.48682 0.887573C8.48682 1.37358 8.87428 1.76755 9.35223 1.76755Z" fill="white"/>
<path d="M17.8293 1.76755C18.3072 1.76755 18.6947 1.37358 18.6947 0.887573C18.6947 0.401563 18.3072 0.00756836 17.8293 0.00756836C17.3513 0.00756836 16.9639 0.401563 16.9639 0.887573C16.9639 1.37358 17.3513 1.76755 17.8293 1.76755Z" fill="white"/>
<path d="M26.3161 1.76755C26.7941 1.76755 27.1815 1.37358 27.1815 0.887573C27.1815 0.401563 26.7941 0.00756836 26.3161 0.00756836C25.8381 0.00756836 25.4507 0.401563 25.4507 0.887573C25.4507 1.37358 25.8381 1.76755 26.3161 1.76755Z" fill="white"/>
<path d="M34.7936 1.76755C35.2716 1.76755 35.659 1.37358 35.659 0.887573C35.659 0.401563 35.2716 0.00756836 34.7936 0.00756836C34.3157 0.00756836 33.9282 0.401563 33.9282 0.887573C33.9282 1.37358 34.3157 1.76755 34.7936 1.76755Z" fill="white"/>
<path d="M43.2706 1.76755C43.7486 1.76755 44.136 1.37358 44.136 0.887573C44.136 0.401563 43.7486 0.00756836 43.2706 0.00756836C42.7927 0.00756836 42.4052 0.401563 42.4052 0.887573C42.4052 1.37358 42.7927 1.76755 43.2706 1.76755Z" fill="white"/>
<path d="M51.7574 1.76755C52.2353 1.76755 52.6228 1.37358 52.6228 0.887573C52.6228 0.401563 52.2353 0.00756836 51.7574 0.00756836C51.2794 0.00756836 50.892 0.401563 50.892 0.887573C50.892 1.37358 51.2794 1.76755 51.7574 1.76755Z" fill="white"/>
<path d="M60.2346 1.76755C60.7126 1.76755 61.1 1.37358 61.1 0.887573C61.1 0.401563 60.7126 0.00756836 60.2346 0.00756836C59.7567 0.00756836 59.3692 0.401563 59.3692 0.887573C59.3692 1.37358 59.7567 1.76755 60.2346 1.76755Z" fill="white"/>
<path d="M68.7213 1.76755C69.1993 1.76755 69.5868 1.37358 69.5868 0.887573C69.5868 0.401563 69.1993 0.00756836 68.7213 0.00756836C68.2434 0.00756836 67.856 0.401563 67.856 0.887573C67.856 1.37358 68.2434 1.76755 68.7213 1.76755Z" fill="white"/>
<path d="M77.1984 1.76755C77.6764 1.76755 78.0638 1.37358 78.0638 0.887573C78.0638 0.401563 77.6764 0.00756836 77.1984 0.00756836C76.7205 0.00756836 76.333 0.401563 76.333 0.887573C76.333 1.37358 76.7205 1.76755 77.1984 1.76755Z" fill="white"/>
<path d="M85.6755 1.76755C86.1535 1.76755 86.5409 1.37358 86.5409 0.887573C86.5409 0.401563 86.1535 0.00756836 85.6755 0.00756836C85.1976 0.00756836 84.8101 0.401563 84.8101 0.887573C84.8101 1.37358 85.1976 1.76755 85.6755 1.76755Z" fill="white"/>
<path d="M94.1625 1.77759C94.6444 1.77759 95.0279 1.37758 95.0279 0.897583C95.0279 0.407583 94.6346 0.0175781 94.1625 0.0175781C93.6807 0.0175781 93.2971 0.417583 93.2971 0.897583C93.2873 1.37758 93.6807 1.77759 94.1625 1.77759Z" fill="white"/>
<path d="M102.639 1.76755C103.117 1.76755 103.505 1.37358 103.505 0.887573C103.505 0.401563 103.117 0.00756836 102.639 0.00756836C102.161 0.00756836 101.774 0.401563 101.774 0.887573C101.774 1.37358 102.161 1.76755 102.639 1.76755Z" fill="white"/>
<path d="M111.127 1.76755C111.605 1.76755 111.992 1.37358 111.992 0.887573C111.992 0.401563 111.605 0.00756836 111.127 0.00756836C110.649 0.00756836 110.261 0.401563 110.261 0.887573C110.261 1.37358 110.649 1.76755 111.127 1.76755Z" fill="white"/>
<path d="M119.603 1.77759C120.085 1.77759 120.469 1.37758 120.469 0.897583C120.469 0.407583 120.075 0.0175781 119.603 0.0175781C119.122 0.0175781 118.738 0.417583 118.738 0.897583C118.728 1.37758 119.122 1.77759 119.603 1.77759Z" fill="white"/>
<path d="M128.081 1.76755C128.559 1.76755 128.946 1.37358 128.946 0.887573C128.946 0.401563 128.559 0.00756836 128.081 0.00756836C127.603 0.00756836 127.215 0.401563 127.215 0.887573C127.215 1.37358 127.603 1.76755 128.081 1.76755Z" fill="white"/>
<path d="M136.568 1.76755C137.046 1.76755 137.433 1.37358 137.433 0.887573C137.433 0.401563 137.046 0.00756836 136.568 0.00756836C136.09 0.00756836 135.702 0.401563 135.702 0.887573C135.702 1.37358 136.09 1.76755 136.568 1.76755Z" fill="white"/>
<path d="M145.044 1.77759C145.526 1.77759 145.91 1.37758 145.91 0.897583C145.91 0.407583 145.517 0.0175781 145.044 0.0175781C144.563 0.0175781 144.179 0.417583 144.179 0.897583C144.179 1.37758 144.563 1.77759 145.044 1.77759Z" fill="white"/>
<path d="M0.865385 10.3974C1.34334 10.3974 1.7308 10.0034 1.7308 9.51743C1.7308 9.03141 1.34334 8.63745 0.865385 8.63745C0.387432 8.63745 0 9.03141 0 9.51743C0 10.0034 0.387432 10.3974 0.865385 10.3974Z" fill="white"/>
<path d="M9.35223 10.3974C9.83018 10.3974 10.2176 10.0034 10.2176 9.51743C10.2176 9.03141 9.83018 8.63745 9.35223 8.63745C8.87428 8.63745 8.48682 9.03141 8.48682 9.51743C8.48682 10.0034 8.87428 10.3974 9.35223 10.3974Z" fill="white"/>
<path d="M17.8293 10.3974C18.3072 10.3974 18.6947 10.0034 18.6947 9.51743C18.6947 9.03141 18.3072 8.63745 17.8293 8.63745C17.3513 8.63745 16.9639 9.03141 16.9639 9.51743C16.9639 10.0034 17.3513 10.3974 17.8293 10.3974Z" fill="white"/>
<path d="M26.3161 10.3974C26.7941 10.3974 27.1815 10.0034 27.1815 9.51743C27.1815 9.03141 26.7941 8.63745 26.3161 8.63745C25.8381 8.63745 25.4507 9.03141 25.4507 9.51743C25.4507 10.0034 25.8381 10.3974 26.3161 10.3974Z" fill="white"/>
<path d="M34.7936 10.3974C35.2716 10.3974 35.659 10.0034 35.659 9.51743C35.659 9.03141 35.2716 8.63745 34.7936 8.63745C34.3157 8.63745 33.9282 9.03141 33.9282 9.51743C33.9282 10.0034 34.3157 10.3974 34.7936 10.3974Z" fill="white"/>
<path d="M43.2706 10.3974C43.7486 10.3974 44.136 10.0034 44.136 9.51743C44.136 9.03141 43.7486 8.63745 43.2706 8.63745C42.7927 8.63745 42.4052 9.03141 42.4052 9.51743C42.4052 10.0034 42.7927 10.3974 43.2706 10.3974Z" fill="white"/>
<path d="M51.7574 10.3974C52.2353 10.3974 52.6228 10.0034 52.6228 9.51743C52.6228 9.03141 52.2353 8.63745 51.7574 8.63745C51.2794 8.63745 50.892 9.03141 50.892 9.51743C50.892 10.0034 51.2794 10.3974 51.7574 10.3974Z" fill="white"/>
<path d="M60.2346 10.3974C60.7126 10.3974 61.1 10.0034 61.1 9.51743C61.1 9.03141 60.7126 8.63745 60.2346 8.63745C59.7567 8.63745 59.3692 9.03141 59.3692 9.51743C59.3692 10.0034 59.7567 10.3974 60.2346 10.3974Z" fill="white"/>
<path d="M68.7213 10.3974C69.1993 10.3974 69.5868 10.0034 69.5868 9.51743C69.5868 9.03141 69.1993 8.63745 68.7213 8.63745C68.2434 8.63745 67.856 9.03141 67.856 9.51743C67.856 10.0034 68.2434 10.3974 68.7213 10.3974Z" fill="white"/>
<path d="M77.1984 10.3974C77.6764 10.3974 78.0638 10.0034 78.0638 9.51743C78.0638 9.03141 77.6764 8.63745 77.1984 8.63745C76.7205 8.63745 76.333 9.03141 76.333 9.51743C76.333 10.0034 76.7205 10.3974 77.1984 10.3974Z" fill="white"/>
<path d="M85.6755 10.3974C86.1535 10.3974 86.5409 10.0034 86.5409 9.51743C86.5409 9.03141 86.1535 8.63745 85.6755 8.63745C85.1976 8.63745 84.8101 9.03141 84.8101 9.51743C84.8101 10.0034 85.1976 10.3974 85.6755 10.3974Z" fill="white"/>
<path d="M94.1625 10.3974C94.6444 10.3974 95.0279 9.99743 95.0279 9.51743C95.0279 9.02743 94.6346 8.63745 94.1625 8.63745C93.6807 8.63745 93.2971 9.03743 93.2971 9.51743C93.2873 10.0074 93.6807 10.3974 94.1625 10.3974Z" fill="white"/>
<path d="M102.639 10.3974C103.117 10.3974 103.505 10.0034 103.505 9.51743C103.505 9.03141 103.117 8.63745 102.639 8.63745C102.161 8.63745 101.774 9.03141 101.774 9.51743C101.774 10.0034 102.161 10.3974 102.639 10.3974Z" fill="white"/>
<path d="M111.127 10.3974C111.605 10.3974 111.992 10.0034 111.992 9.51743C111.992 9.03141 111.605 8.63745 111.127 8.63745C110.649 8.63745 110.261 9.03141 110.261 9.51743C110.261 10.0034 110.649 10.3974 111.127 10.3974Z" fill="white"/>
<path d="M119.603 10.3974C120.085 10.3974 120.469 9.99743 120.469 9.51743C120.469 9.02743 120.075 8.63745 119.603 8.63745C119.122 8.63745 118.738 9.03743 118.738 9.51743C118.728 10.0074 119.122 10.3974 119.603 10.3974Z" fill="white"/>
<path d="M128.081 10.3974C128.559 10.3974 128.946 10.0034 128.946 9.51743C128.946 9.03141 128.559 8.63745 128.081 8.63745C127.603 8.63745 127.215 9.03141 127.215 9.51743C127.215 10.0034 127.603 10.3974 128.081 10.3974Z" fill="white"/>
<path d="M136.568 10.3974C137.046 10.3974 137.433 10.0034 137.433 9.51743C137.433 9.03141 137.046 8.63745 136.568 8.63745C136.09 8.63745 135.702 9.03141 135.702 9.51743C135.702 10.0034 136.09 10.3974 136.568 10.3974Z" fill="white"/>
<path d="M145.044 10.3974C145.526 10.3974 145.91 9.99743 145.91 9.51743C145.91 9.02743 145.517 8.63745 145.044 8.63745C144.563 8.63745 144.179 9.03743 144.179 9.51743C144.179 10.0074 144.563 10.3974 145.044 10.3974Z" fill="white"/>
<path d="M0.865385 19.0175C1.34334 19.0175 1.7308 18.6236 1.7308 18.1376C1.7308 17.6516 1.34334 17.2576 0.865385 17.2576C0.387432 17.2576 0 17.6516 0 18.1376C0 18.6236 0.387432 19.0175 0.865385 19.0175Z" fill="white"/>
<path d="M9.35223 19.0175C9.83018 19.0175 10.2176 18.6236 10.2176 18.1376C10.2176 17.6516 9.83018 17.2576 9.35223 17.2576C8.87428 17.2576 8.48682 17.6516 8.48682 18.1376C8.48682 18.6236 8.87428 19.0175 9.35223 19.0175Z" fill="white"/>
<path d="M17.8293 19.0175C18.3072 19.0175 18.6947 18.6236 18.6947 18.1376C18.6947 17.6516 18.3072 17.2576 17.8293 17.2576C17.3513 17.2576 16.9639 17.6516 16.9639 18.1376C16.9639 18.6236 17.3513 19.0175 17.8293 19.0175Z" fill="white"/>
<path d="M26.3161 19.0175C26.7941 19.0175 27.1815 18.6236 27.1815 18.1376C27.1815 17.6516 26.7941 17.2576 26.3161 17.2576C25.8381 17.2576 25.4507 17.6516 25.4507 18.1376C25.4507 18.6236 25.8381 19.0175 26.3161 19.0175Z" fill="white"/>
<path d="M34.7936 19.0175C35.2716 19.0175 35.659 18.6236 35.659 18.1376C35.659 17.6516 35.2716 17.2576 34.7936 17.2576C34.3157 17.2576 33.9282 17.6516 33.9282 18.1376C33.9282 18.6236 34.3157 19.0175 34.7936 19.0175Z" fill="white"/>
<path d="M43.2706 19.0175C43.7486 19.0175 44.136 18.6236 44.136 18.1376C44.136 17.6516 43.7486 17.2576 43.2706 17.2576C42.7927 17.2576 42.4052 17.6516 42.4052 18.1376C42.4052 18.6236 42.7927 19.0175 43.2706 19.0175Z" fill="white"/>
<path d="M51.7574 19.0175C52.2353 19.0175 52.6228 18.6236 52.6228 18.1376C52.6228 17.6516 52.2353 17.2576 51.7574 17.2576C51.2794 17.2576 50.892 17.6516 50.892 18.1376C50.892 18.6236 51.2794 19.0175 51.7574 19.0175Z" fill="white"/>
<path d="M60.2346 19.0175C60.7126 19.0175 61.1 18.6236 61.1 18.1376C61.1 17.6516 60.7126 17.2576 60.2346 17.2576C59.7567 17.2576 59.3692 17.6516 59.3692 18.1376C59.3692 18.6236 59.7567 19.0175 60.2346 19.0175Z" fill="white"/>
<path d="M68.7213 19.0175C69.1993 19.0175 69.5868 18.6236 69.5868 18.1376C69.5868 17.6516 69.1993 17.2576 68.7213 17.2576C68.2434 17.2576 67.856 17.6516 67.856 18.1376C67.856 18.6236 68.2434 19.0175 68.7213 19.0175Z" fill="white"/>
<path d="M77.1984 19.0175C77.6764 19.0175 78.0638 18.6236 78.0638 18.1376C78.0638 17.6516 77.6764 17.2576 77.1984 17.2576C76.7205 17.2576 76.333 17.6516 76.333 18.1376C76.333 18.6236 76.7205 19.0175 77.1984 19.0175Z" fill="white"/>
<path d="M85.6755 19.0175C86.1535 19.0175 86.5409 18.6236 86.5409 18.1376C86.5409 17.6516 86.1535 17.2576 85.6755 17.2576C85.1976 17.2576 84.8101 17.6516 84.8101 18.1376C84.8101 18.6236 85.1976 19.0175 85.6755 19.0175Z" fill="white"/>
<path d="M94.1625 19.0276C94.6444 19.0276 95.0279 18.6276 95.0279 18.1476C95.0279 17.6576 94.6346 17.2676 94.1625 17.2676C93.6807 17.2676 93.2971 17.6676 93.2971 18.1476C93.2873 18.6276 93.6807 19.0276 94.1625 19.0276Z" fill="white"/>
<path d="M102.639 19.0175C103.117 19.0175 103.505 18.6236 103.505 18.1376C103.505 17.6516 103.117 17.2576 102.639 17.2576C102.161 17.2576 101.774 17.6516 101.774 18.1376C101.774 18.6236 102.161 19.0175 102.639 19.0175Z" fill="white"/>
<path d="M111.127 19.0175C111.605 19.0175 111.992 18.6236 111.992 18.1376C111.992 17.6516 111.605 17.2576 111.127 17.2576C110.649 17.2576 110.261 17.6516 110.261 18.1376C110.261 18.6236 110.649 19.0175 111.127 19.0175Z" fill="white"/>
<path d="M119.603 19.0276C120.085 19.0276 120.469 18.6276 120.469 18.1476C120.469 17.6576 120.075 17.2676 119.603 17.2676C119.122 17.2676 118.738 17.6676 118.738 18.1476C118.728 18.6276 119.122 19.0276 119.603 19.0276Z" fill="white"/>
<path d="M128.081 19.0175C128.559 19.0175 128.946 18.6236 128.946 18.1376C128.946 17.6516 128.559 17.2576 128.081 17.2576C127.603 17.2576 127.215 17.6516 127.215 18.1376C127.215 18.6236 127.603 19.0175 128.081 19.0175Z" fill="white"/>
<path d="M136.568 19.0175C137.046 19.0175 137.433 18.6236 137.433 18.1376C137.433 17.6516 137.046 17.2576 136.568 17.2576C136.09 17.2576 135.702 17.6516 135.702 18.1376C135.702 18.6236 136.09 19.0175 136.568 19.0175Z" fill="white"/>
<path d="M145.044 19.0276C145.526 19.0276 145.91 18.6276 145.91 18.1476C145.91 17.6576 145.517 17.2676 145.044 17.2676C144.563 17.2676 144.179 17.6676 144.179 18.1476C144.179 18.6276 144.563 19.0276 145.044 19.0276Z" fill="white"/>
<path d="M0.865385 27.6377C1.34334 27.6377 1.7308 27.2437 1.7308 26.7577C1.7308 26.2717 1.34334 25.8777 0.865385 25.8777C0.387432 25.8777 0 26.2717 0 26.7577C0 27.2437 0.387432 27.6377 0.865385 27.6377Z" fill="white"/>
<path d="M9.35223 27.6377C9.83018 27.6377 10.2176 27.2437 10.2176 26.7577C10.2176 26.2717 9.83018 25.8777 9.35223 25.8777C8.87428 25.8777 8.48682 26.2717 8.48682 26.7577C8.48682 27.2437 8.87428 27.6377 9.35223 27.6377Z" fill="white"/>
<path d="M17.8293 27.6377C18.3072 27.6377 18.6947 27.2437 18.6947 26.7577C18.6947 26.2717 18.3072 25.8777 17.8293 25.8777C17.3513 25.8777 16.9639 26.2717 16.9639 26.7577C16.9639 27.2437 17.3513 27.6377 17.8293 27.6377Z" fill="white"/>
<path d="M26.3161 27.6377C26.7941 27.6377 27.1815 27.2437 27.1815 26.7577C27.1815 26.2717 26.7941 25.8777 26.3161 25.8777C25.8381 25.8777 25.4507 26.2717 25.4507 26.7577C25.4507 27.2437 25.8381 27.6377 26.3161 27.6377Z" fill="white"/>
<path d="M34.7936 27.6377C35.2716 27.6377 35.659 27.2437 35.659 26.7577C35.659 26.2717 35.2716 25.8777 34.7936 25.8777C34.3157 25.8777 33.9282 26.2717 33.9282 26.7577C33.9282 27.2437 34.3157 27.6377 34.7936 27.6377Z" fill="white"/>
<path d="M43.2706 27.6377C43.7486 27.6377 44.136 27.2437 44.136 26.7577C44.136 26.2717 43.7486 25.8777 43.2706 25.8777C42.7927 25.8777 42.4052 26.2717 42.4052 26.7577C42.4052 27.2437 42.7927 27.6377 43.2706 27.6377Z" fill="white"/>
<path d="M51.7574 27.6377C52.2353 27.6377 52.6228 27.2437 52.6228 26.7577C52.6228 26.2717 52.2353 25.8777 51.7574 25.8777C51.2794 25.8777 50.892 26.2717 50.892 26.7577C50.892 27.2437 51.2794 27.6377 51.7574 27.6377Z" fill="white"/>
<path d="M60.2346 27.6377C60.7126 27.6377 61.1 27.2437 61.1 26.7577C61.1 26.2717 60.7126 25.8777 60.2346 25.8777C59.7567 25.8777 59.3692 26.2717 59.3692 26.7577C59.3692 27.2437 59.7567 27.6377 60.2346 27.6377Z" fill="white"/>
<path d="M68.7213 27.6377C69.1993 27.6377 69.5868 27.2437 69.5868 26.7577C69.5868 26.2717 69.1993 25.8777 68.7213 25.8777C68.2434 25.8777 67.856 26.2717 67.856 26.7577C67.856 27.2437 68.2434 27.6377 68.7213 27.6377Z" fill="white"/>
<path d="M77.1984 27.6377C77.6764 27.6377 78.0638 27.2437 78.0638 26.7577C78.0638 26.2717 77.6764 25.8777 77.1984 25.8777C76.7205 25.8777 76.333 26.2717 76.333 26.7577C76.333 27.2437 76.7205 27.6377 77.1984 27.6377Z" fill="white"/>
<path d="M85.6755 27.6377C86.1535 27.6377 86.5409 27.2437 86.5409 26.7577C86.5409 26.2717 86.1535 25.8777 85.6755 25.8777C85.1976 25.8777 84.8101 26.2717 84.8101 26.7577C84.8101 27.2437 85.1976 27.6377 85.6755 27.6377Z" fill="white"/>
<path d="M94.1628 27.6474C94.6447 27.6474 95.0282 27.2474 95.0282 26.7674C95.0282 26.2874 94.6348 25.8875 94.1628 25.8875C93.6809 25.8875 93.2974 26.2874 93.2974 26.7674C93.2974 27.2474 93.6809 27.6474 94.1628 27.6474Z" fill="white"/>
<path d="M102.639 27.6377C103.117 27.6377 103.505 27.2437 103.505 26.7577C103.505 26.2717 103.117 25.8777 102.639 25.8777C102.161 25.8777 101.774 26.2717 101.774 26.7577C101.774 27.2437 102.161 27.6377 102.639 27.6377Z" fill="white"/>
<path d="M111.127 27.6377C111.605 27.6377 111.992 27.2437 111.992 26.7577C111.992 26.2717 111.605 25.8777 111.127 25.8777C110.649 25.8777 110.261 26.2717 110.261 26.7577C110.261 27.2437 110.649 27.6377 111.127 27.6377Z" fill="white"/>
<path d="M119.604 27.6474C120.086 27.6474 120.469 27.2474 120.469 26.7674C120.469 26.2874 120.076 25.8875 119.604 25.8875C119.122 25.8875 118.738 26.2874 118.738 26.7674C118.738 27.2474 119.122 27.6474 119.604 27.6474Z" fill="white"/>
<path d="M128.081 27.6377C128.559 27.6377 128.946 27.2437 128.946 26.7577C128.946 26.2717 128.559 25.8777 128.081 25.8777C127.603 25.8777 127.215 26.2717 127.215 26.7577C127.215 27.2437 127.603 27.6377 128.081 27.6377Z" fill="white"/>
<path d="M136.568 27.6377C137.046 27.6377 137.433 27.2437 137.433 26.7577C137.433 26.2717 137.046 25.8777 136.568 25.8777C136.09 25.8777 135.702 26.2717 135.702 26.7577C135.702 27.2437 136.09 27.6377 136.568 27.6377Z" fill="white"/>
<path d="M145.044 27.6474C145.526 27.6474 145.91 27.2474 145.91 26.7674C145.91 26.2874 145.517 25.8875 145.044 25.8875C144.563 25.8875 144.179 26.2874 144.179 26.7674C144.179 27.2474 144.563 27.6474 145.044 27.6474Z" fill="white"/>
</svg>
