<svg width="146" height="28" viewBox="0 0 146 28" fill="none" xmlns="http://www.w3.org/2000/svg">
<path d="M0.955228 1.76755C1.43318 1.76755 1.82064 1.37358 1.82064 0.887573C1.82064 0.401563 1.43318 0.00756836 0.955228 0.00756836C0.477276 0.00756836 0.0898438 0.401563 0.0898438 0.887573C0.0898438 1.37358 0.477276 1.76755 0.955228 1.76755Z" fill="white"/>
<path d="M9.44207 1.76755C9.92003 1.76755 10.3075 1.37358 10.3075 0.887573C10.3075 0.401563 9.92003 0.00756836 9.44207 0.00756836C8.96412 0.00756836 8.57666 0.401563 8.57666 0.887573C8.57666 1.37358 8.96412 1.76755 9.44207 1.76755Z" fill="white"/>
<path d="M17.9191 1.76755C18.397 1.76755 18.7845 1.37358 18.7845 0.887573C18.7845 0.401563 18.397 0.00756836 17.9191 0.00756836C17.4411 0.00756836 17.0537 0.401563 17.0537 0.887573C17.0537 1.37358 17.4411 1.76755 17.9191 1.76755Z" fill="white"/>
<path d="M26.4059 1.76755C26.8839 1.76755 27.2714 1.37358 27.2714 0.887573C27.2714 0.401563 26.8839 0.00756836 26.4059 0.00756836C25.928 0.00756836 25.5405 0.401563 25.5405 0.887573C25.5405 1.37358 25.928 1.76755 26.4059 1.76755Z" fill="white"/>
<path d="M34.8835 1.76755C35.3614 1.76755 35.7489 1.37358 35.7489 0.887573C35.7489 0.401563 35.3614 0.00756836 34.8835 0.00756836C34.4055 0.00756836 34.0181 0.401563 34.0181 0.887573C34.0181 1.37358 34.4055 1.76755 34.8835 1.76755Z" fill="white"/>
<path d="M43.3605 1.76755C43.8384 1.76755 44.2259 1.37358 44.2259 0.887573C44.2259 0.401563 43.8384 0.00756836 43.3605 0.00756836C42.8825 0.00756836 42.4951 0.401563 42.4951 0.887573C42.4951 1.37358 42.8825 1.76755 43.3605 1.76755Z" fill="white"/>
<path d="M51.8472 1.76755C52.3251 1.76755 52.7126 1.37358 52.7126 0.887573C52.7126 0.401563 52.3251 0.00756836 51.8472 0.00756836C51.3692 0.00756836 50.9818 0.401563 50.9818 0.887573C50.9818 1.37358 51.3692 1.76755 51.8472 1.76755Z" fill="white"/>
<path d="M60.3245 1.76755C60.8024 1.76755 61.1898 1.37358 61.1898 0.887573C61.1898 0.401563 60.8024 0.00756836 60.3245 0.00756836C59.8465 0.00756836 59.459 0.401563 59.459 0.887573C59.459 1.37358 59.8465 1.76755 60.3245 1.76755Z" fill="white"/>
<path d="M68.8112 1.76755C69.2891 1.76755 69.6766 1.37358 69.6766 0.887573C69.6766 0.401563 69.2891 0.00756836 68.8112 0.00756836C68.3332 0.00756836 67.9458 0.401563 67.9458 0.887573C67.9458 1.37358 68.3332 1.76755 68.8112 1.76755Z" fill="white"/>
<path d="M77.2883 1.76755C77.7662 1.76755 78.1537 1.37358 78.1537 0.887573C78.1537 0.401563 77.7662 0.00756836 77.2883 0.00756836C76.8103 0.00756836 76.4229 0.401563 76.4229 0.887573C76.4229 1.37358 76.8103 1.76755 77.2883 1.76755Z" fill="white"/>
<path d="M85.7654 1.76755C86.2433 1.76755 86.6308 1.37358 86.6308 0.887573C86.6308 0.401563 86.2433 0.00756836 85.7654 0.00756836C85.2874 0.00756836 84.9 0.401563 84.9 0.887573C84.9 1.37358 85.2874 1.76755 85.7654 1.76755Z" fill="white"/>
<path d="M94.2524 1.77759C94.7343 1.77759 95.1178 1.37758 95.1178 0.897583C95.1178 0.407583 94.7244 0.0175781 94.2524 0.0175781C93.7705 0.0175781 93.387 0.417583 93.387 0.897583C93.3771 1.37758 93.7705 1.77759 94.2524 1.77759Z" fill="white"/>
<path d="M102.729 1.76755C103.207 1.76755 103.595 1.37358 103.595 0.887573C103.595 0.401563 103.207 0.00756836 102.729 0.00756836C102.251 0.00756836 101.864 0.401563 101.864 0.887573C101.864 1.37358 102.251 1.76755 102.729 1.76755Z" fill="white"/>
<path d="M111.216 1.76755C111.694 1.76755 112.082 1.37358 112.082 0.887573C112.082 0.401563 111.694 0.00756836 111.216 0.00756836C110.739 0.00756836 110.351 0.401563 110.351 0.887573C110.351 1.37358 110.739 1.76755 111.216 1.76755Z" fill="white"/>
<path d="M119.693 1.77759C120.175 1.77759 120.559 1.37758 120.559 0.897583C120.559 0.407583 120.165 0.0175781 119.693 0.0175781C119.211 0.0175781 118.828 0.417583 118.828 0.897583C118.818 1.37758 119.211 1.77759 119.693 1.77759Z" fill="white"/>
<path d="M128.171 1.76755C128.649 1.76755 129.036 1.37358 129.036 0.887573C129.036 0.401563 128.649 0.00756836 128.171 0.00756836C127.693 0.00756836 127.305 0.401563 127.305 0.887573C127.305 1.37358 127.693 1.76755 128.171 1.76755Z" fill="white"/>
<path d="M136.657 1.76755C137.135 1.76755 137.523 1.37358 137.523 0.887573C137.523 0.401563 137.135 0.00756836 136.657 0.00756836C136.179 0.00756836 135.792 0.401563 135.792 0.887573C135.792 1.37358 136.179 1.76755 136.657 1.76755Z" fill="white"/>
<path d="M145.134 1.77759C145.616 1.77759 146 1.37758 146 0.897583C146 0.407583 145.606 0.0175781 145.134 0.0175781C144.652 0.0175781 144.269 0.417583 144.269 0.897583C144.269 1.37758 144.652 1.77759 145.134 1.77759Z" fill="white"/>
<path d="M0.955228 10.3974C1.43318 10.3974 1.82064 10.0034 1.82064 9.51743C1.82064 9.03141 1.43318 8.63745 0.955228 8.63745C0.477276 8.63745 0.0898438 9.03141 0.0898438 9.51743C0.0898438 10.0034 0.477276 10.3974 0.955228 10.3974Z" fill="white"/>
<path d="M9.44207 10.3974C9.92003 10.3974 10.3075 10.0034 10.3075 9.51743C10.3075 9.03141 9.92003 8.63745 9.44207 8.63745C8.96412 8.63745 8.57666 9.03141 8.57666 9.51743C8.57666 10.0034 8.96412 10.3974 9.44207 10.3974Z" fill="white"/>
<path d="M17.9191 10.3974C18.397 10.3974 18.7845 10.0034 18.7845 9.51743C18.7845 9.03141 18.397 8.63745 17.9191 8.63745C17.4411 8.63745 17.0537 9.03141 17.0537 9.51743C17.0537 10.0034 17.4411 10.3974 17.9191 10.3974Z" fill="white"/>
<path d="M26.4059 10.3974C26.8839 10.3974 27.2714 10.0034 27.2714 9.51743C27.2714 9.03141 26.8839 8.63745 26.4059 8.63745C25.928 8.63745 25.5405 9.03141 25.5405 9.51743C25.5405 10.0034 25.928 10.3974 26.4059 10.3974Z" fill="white"/>
<path d="M34.8835 10.3974C35.3614 10.3974 35.7489 10.0034 35.7489 9.51743C35.7489 9.03141 35.3614 8.63745 34.8835 8.63745C34.4055 8.63745 34.0181 9.03141 34.0181 9.51743C34.0181 10.0034 34.4055 10.3974 34.8835 10.3974Z" fill="white"/>
<path d="M43.3605 10.3974C43.8384 10.3974 44.2259 10.0034 44.2259 9.51743C44.2259 9.03141 43.8384 8.63745 43.3605 8.63745C42.8825 8.63745 42.4951 9.03141 42.4951 9.51743C42.4951 10.0034 42.8825 10.3974 43.3605 10.3974Z" fill="white"/>
<path d="M51.8472 10.3974C52.3251 10.3974 52.7126 10.0034 52.7126 9.51743C52.7126 9.03141 52.3251 8.63745 51.8472 8.63745C51.3692 8.63745 50.9818 9.03141 50.9818 9.51743C50.9818 10.0034 51.3692 10.3974 51.8472 10.3974Z" fill="white"/>
<path d="M60.3245 10.3974C60.8024 10.3974 61.1898 10.0034 61.1898 9.51743C61.1898 9.03141 60.8024 8.63745 60.3245 8.63745C59.8465 8.63745 59.459 9.03141 59.459 9.51743C59.459 10.0034 59.8465 10.3974 60.3245 10.3974Z" fill="white"/>
<path d="M68.8112 10.3974C69.2891 10.3974 69.6766 10.0034 69.6766 9.51743C69.6766 9.03141 69.2891 8.63745 68.8112 8.63745C68.3332 8.63745 67.9458 9.03141 67.9458 9.51743C67.9458 10.0034 68.3332 10.3974 68.8112 10.3974Z" fill="white"/>
<path d="M77.2883 10.3974C77.7662 10.3974 78.1537 10.0034 78.1537 9.51743C78.1537 9.03141 77.7662 8.63745 77.2883 8.63745C76.8103 8.63745 76.4229 9.03141 76.4229 9.51743C76.4229 10.0034 76.8103 10.3974 77.2883 10.3974Z" fill="white"/>
<path d="M85.7654 10.3974C86.2433 10.3974 86.6308 10.0034 86.6308 9.51743C86.6308 9.03141 86.2433 8.63745 85.7654 8.63745C85.2874 8.63745 84.9 9.03141 84.9 9.51743C84.9 10.0034 85.2874 10.3974 85.7654 10.3974Z" fill="white"/>
<path d="M94.2524 10.3974C94.7343 10.3974 95.1178 9.99743 95.1178 9.51743C95.1178 9.02743 94.7244 8.63745 94.2524 8.63745C93.7705 8.63745 93.387 9.03743 93.387 9.51743C93.3771 10.0074 93.7705 10.3974 94.2524 10.3974Z" fill="white"/>
<path d="M102.729 10.3974C103.207 10.3974 103.595 10.0034 103.595 9.51743C103.595 9.03141 103.207 8.63745 102.729 8.63745C102.251 8.63745 101.864 9.03141 101.864 9.51743C101.864 10.0034 102.251 10.3974 102.729 10.3974Z" fill="white"/>
<path d="M111.216 10.3974C111.694 10.3974 112.082 10.0034 112.082 9.51743C112.082 9.03141 111.694 8.63745 111.216 8.63745C110.739 8.63745 110.351 9.03141 110.351 9.51743C110.351 10.0034 110.739 10.3974 111.216 10.3974Z" fill="white"/>
<path d="M119.693 10.3974C120.175 10.3974 120.559 9.99743 120.559 9.51743C120.559 9.02743 120.165 8.63745 119.693 8.63745C119.211 8.63745 118.828 9.03743 118.828 9.51743C118.818 10.0074 119.211 10.3974 119.693 10.3974Z" fill="white"/>
<path d="M128.171 10.3974C128.649 10.3974 129.036 10.0034 129.036 9.51743C129.036 9.03141 128.649 8.63745 128.171 8.63745C127.693 8.63745 127.305 9.03141 127.305 9.51743C127.305 10.0034 127.693 10.3974 128.171 10.3974Z" fill="white"/>
<path d="M136.657 10.3974C137.135 10.3974 137.523 10.0034 137.523 9.51743C137.523 9.03141 137.135 8.63745 136.657 8.63745C136.179 8.63745 135.792 9.03141 135.792 9.51743C135.792 10.0034 136.179 10.3974 136.657 10.3974Z" fill="white"/>
<path d="M145.134 10.3974C145.616 10.3974 146 9.99743 146 9.51743C146 9.02743 145.606 8.63745 145.134 8.63745C144.652 8.63745 144.269 9.03743 144.269 9.51743C144.269 10.0074 144.652 10.3974 145.134 10.3974Z" fill="white"/>
<path d="M0.955228 19.0175C1.43318 19.0175 1.82064 18.6236 1.82064 18.1376C1.82064 17.6516 1.43318 17.2576 0.955228 17.2576C0.477276 17.2576 0.0898438 17.6516 0.0898438 18.1376C0.0898438 18.6236 0.477276 19.0175 0.955228 19.0175Z" fill="white"/>
<path d="M9.44207 19.0175C9.92003 19.0175 10.3075 18.6236 10.3075 18.1376C10.3075 17.6516 9.92003 17.2576 9.44207 17.2576C8.96412 17.2576 8.57666 17.6516 8.57666 18.1376C8.57666 18.6236 8.96412 19.0175 9.44207 19.0175Z" fill="white"/>
<path d="M17.9191 19.0175C18.397 19.0175 18.7845 18.6236 18.7845 18.1376C18.7845 17.6516 18.397 17.2576 17.9191 17.2576C17.4411 17.2576 17.0537 17.6516 17.0537 18.1376C17.0537 18.6236 17.4411 19.0175 17.9191 19.0175Z" fill="white"/>
<path d="M26.4059 19.0175C26.8839 19.0175 27.2714 18.6236 27.2714 18.1376C27.2714 17.6516 26.8839 17.2576 26.4059 17.2576C25.928 17.2576 25.5405 17.6516 25.5405 18.1376C25.5405 18.6236 25.928 19.0175 26.4059 19.0175Z" fill="white"/>
<path d="M34.8835 19.0175C35.3614 19.0175 35.7489 18.6236 35.7489 18.1376C35.7489 17.6516 35.3614 17.2576 34.8835 17.2576C34.4055 17.2576 34.0181 17.6516 34.0181 18.1376C34.0181 18.6236 34.4055 19.0175 34.8835 19.0175Z" fill="white"/>
<path d="M43.3605 19.0175C43.8384 19.0175 44.2259 18.6236 44.2259 18.1376C44.2259 17.6516 43.8384 17.2576 43.3605 17.2576C42.8825 17.2576 42.4951 17.6516 42.4951 18.1376C42.4951 18.6236 42.8825 19.0175 43.3605 19.0175Z" fill="white"/>
<path d="M51.8472 19.0175C52.3251 19.0175 52.7126 18.6236 52.7126 18.1376C52.7126 17.6516 52.3251 17.2576 51.8472 17.2576C51.3692 17.2576 50.9818 17.6516 50.9818 18.1376C50.9818 18.6236 51.3692 19.0175 51.8472 19.0175Z" fill="white"/>
<path d="M60.3245 19.0175C60.8024 19.0175 61.1898 18.6236 61.1898 18.1376C61.1898 17.6516 60.8024 17.2576 60.3245 17.2576C59.8465 17.2576 59.459 17.6516 59.459 18.1376C59.459 18.6236 59.8465 19.0175 60.3245 19.0175Z" fill="white"/>
<path d="M68.8112 19.0175C69.2891 19.0175 69.6766 18.6236 69.6766 18.1376C69.6766 17.6516 69.2891 17.2576 68.8112 17.2576C68.3332 17.2576 67.9458 17.6516 67.9458 18.1376C67.9458 18.6236 68.3332 19.0175 68.8112 19.0175Z" fill="white"/>
<path d="M77.2883 19.0175C77.7662 19.0175 78.1537 18.6236 78.1537 18.1376C78.1537 17.6516 77.7662 17.2576 77.2883 17.2576C76.8103 17.2576 76.4229 17.6516 76.4229 18.1376C76.4229 18.6236 76.8103 19.0175 77.2883 19.0175Z" fill="white"/>
<path d="M85.7654 19.0175C86.2433 19.0175 86.6308 18.6236 86.6308 18.1376C86.6308 17.6516 86.2433 17.2576 85.7654 17.2576C85.2874 17.2576 84.9 17.6516 84.9 18.1376C84.9 18.6236 85.2874 19.0175 85.7654 19.0175Z" fill="white"/>
<path d="M94.2524 19.0276C94.7343 19.0276 95.1178 18.6276 95.1178 18.1476C95.1178 17.6576 94.7244 17.2676 94.2524 17.2676C93.7705 17.2676 93.387 17.6676 93.387 18.1476C93.3771 18.6276 93.7705 19.0276 94.2524 19.0276Z" fill="white"/>
<path d="M102.729 19.0175C103.207 19.0175 103.595 18.6236 103.595 18.1376C103.595 17.6516 103.207 17.2576 102.729 17.2576C102.251 17.2576 101.864 17.6516 101.864 18.1376C101.864 18.6236 102.251 19.0175 102.729 19.0175Z" fill="white"/>
<path d="M111.216 19.0175C111.694 19.0175 112.082 18.6236 112.082 18.1376C112.082 17.6516 111.694 17.2576 111.216 17.2576C110.739 17.2576 110.351 17.6516 110.351 18.1376C110.351 18.6236 110.739 19.0175 111.216 19.0175Z" fill="white"/>
<path d="M119.693 19.0276C120.175 19.0276 120.559 18.6276 120.559 18.1476C120.559 17.6576 120.165 17.2676 119.693 17.2676C119.211 17.2676 118.828 17.6676 118.828 18.1476C118.818 18.6276 119.211 19.0276 119.693 19.0276Z" fill="white"/>
<path d="M128.171 19.0175C128.649 19.0175 129.036 18.6236 129.036 18.1376C129.036 17.6516 128.649 17.2576 128.171 17.2576C127.693 17.2576 127.305 17.6516 127.305 18.1376C127.305 18.6236 127.693 19.0175 128.171 19.0175Z" fill="white"/>
<path d="M136.657 19.0175C137.135 19.0175 137.523 18.6236 137.523 18.1376C137.523 17.6516 137.135 17.2576 136.657 17.2576C136.179 17.2576 135.792 17.6516 135.792 18.1376C135.792 18.6236 136.179 19.0175 136.657 19.0175Z" fill="white"/>
<path d="M145.134 19.0276C145.616 19.0276 146 18.6276 146 18.1476C146 17.6576 145.606 17.2676 145.134 17.2676C144.652 17.2676 144.269 17.6676 144.269 18.1476C144.269 18.6276 144.652 19.0276 145.134 19.0276Z" fill="white"/>
<path d="M0.955228 27.6377C1.43318 27.6377 1.82064 27.2437 1.82064 26.7577C1.82064 26.2717 1.43318 25.8777 0.955228 25.8777C0.477276 25.8777 0.0898438 26.2717 0.0898438 26.7577C0.0898438 27.2437 0.477276 27.6377 0.955228 27.6377Z" fill="white"/>
<path d="M9.44207 27.6377C9.92003 27.6377 10.3075 27.2437 10.3075 26.7577C10.3075 26.2717 9.92003 25.8777 9.44207 25.8777C8.96412 25.8777 8.57666 26.2717 8.57666 26.7577C8.57666 27.2437 8.96412 27.6377 9.44207 27.6377Z" fill="white"/>
<path d="M17.9191 27.6377C18.397 27.6377 18.7845 27.2437 18.7845 26.7577C18.7845 26.2717 18.397 25.8777 17.9191 25.8777C17.4411 25.8777 17.0537 26.2717 17.0537 26.7577C17.0537 27.2437 17.4411 27.6377 17.9191 27.6377Z" fill="white"/>
<path d="M26.4059 27.6377C26.8839 27.6377 27.2714 27.2437 27.2714 26.7577C27.2714 26.2717 26.8839 25.8777 26.4059 25.8777C25.928 25.8777 25.5405 26.2717 25.5405 26.7577C25.5405 27.2437 25.928 27.6377 26.4059 27.6377Z" fill="white"/>
<path d="M34.8835 27.6377C35.3614 27.6377 35.7489 27.2437 35.7489 26.7577C35.7489 26.2717 35.3614 25.8777 34.8835 25.8777C34.4055 25.8777 34.0181 26.2717 34.0181 26.7577C34.0181 27.2437 34.4055 27.6377 34.8835 27.6377Z" fill="white"/>
<path d="M43.3605 27.6377C43.8384 27.6377 44.2259 27.2437 44.2259 26.7577C44.2259 26.2717 43.8384 25.8777 43.3605 25.8777C42.8825 25.8777 42.4951 26.2717 42.4951 26.7577C42.4951 27.2437 42.8825 27.6377 43.3605 27.6377Z" fill="white"/>
<path d="M51.8472 27.6377C52.3251 27.6377 52.7126 27.2437 52.7126 26.7577C52.7126 26.2717 52.3251 25.8777 51.8472 25.8777C51.3692 25.8777 50.9818 26.2717 50.9818 26.7577C50.9818 27.2437 51.3692 27.6377 51.8472 27.6377Z" fill="white"/>
<path d="M60.3245 27.6377C60.8024 27.6377 61.1898 27.2437 61.1898 26.7577C61.1898 26.2717 60.8024 25.8777 60.3245 25.8777C59.8465 25.8777 59.459 26.2717 59.459 26.7577C59.459 27.2437 59.8465 27.6377 60.3245 27.6377Z" fill="white"/>
<path d="M68.8112 27.6377C69.2891 27.6377 69.6766 27.2437 69.6766 26.7577C69.6766 26.2717 69.2891 25.8777 68.8112 25.8777C68.3332 25.8777 67.9458 26.2717 67.9458 26.7577C67.9458 27.2437 68.3332 27.6377 68.8112 27.6377Z" fill="white"/>
<path d="M77.2883 27.6377C77.7662 27.6377 78.1537 27.2437 78.1537 26.7577C78.1537 26.2717 77.7662 25.8777 77.2883 25.8777C76.8103 25.8777 76.4229 26.2717 76.4229 26.7577C76.4229 27.2437 76.8103 27.6377 77.2883 27.6377Z" fill="white"/>
<path d="M85.7654 27.6377C86.2433 27.6377 86.6308 27.2437 86.6308 26.7577C86.6308 26.2717 86.2433 25.8777 85.7654 25.8777C85.2874 25.8777 84.9 26.2717 84.9 26.7577C84.9 27.2437 85.2874 27.6377 85.7654 27.6377Z" fill="white"/>
<path d="M94.2526 27.6474C94.7345 27.6474 95.118 27.2474 95.118 26.7674C95.118 26.2874 94.7247 25.8875 94.2526 25.8875C93.7707 25.8875 93.3872 26.2874 93.3872 26.7674C93.3872 27.2474 93.7707 27.6474 94.2526 27.6474Z" fill="white"/>
<path d="M102.729 27.6377C103.207 27.6377 103.595 27.2437 103.595 26.7577C103.595 26.2717 103.207 25.8777 102.729 25.8777C102.251 25.8777 101.864 26.2717 101.864 26.7577C101.864 27.2437 102.251 27.6377 102.729 27.6377Z" fill="white"/>
<path d="M111.216 27.6377C111.694 27.6377 112.082 27.2437 112.082 26.7577C112.082 26.2717 111.694 25.8777 111.216 25.8777C110.739 25.8777 110.351 26.2717 110.351 26.7577C110.351 27.2437 110.739 27.6377 111.216 27.6377Z" fill="white"/>
<path d="M119.694 27.6474C120.175 27.6474 120.559 27.2474 120.559 26.7674C120.559 26.2874 120.166 25.8875 119.694 25.8875C119.212 25.8875 118.828 26.2874 118.828 26.7674C118.828 27.2474 119.212 27.6474 119.694 27.6474Z" fill="white"/>
<path d="M128.171 27.6377C128.649 27.6377 129.036 27.2437 129.036 26.7577C129.036 26.2717 128.649 25.8777 128.171 25.8777C127.693 25.8777 127.305 26.2717 127.305 26.7577C127.305 27.2437 127.693 27.6377 128.171 27.6377Z" fill="white"/>
<path d="M136.657 27.6377C137.135 27.6377 137.523 27.2437 137.523 26.7577C137.523 26.2717 137.135 25.8777 136.657 25.8777C136.179 25.8777 135.792 26.2717 135.792 26.7577C135.792 27.2437 136.179 27.6377 136.657 27.6377Z" fill="white"/>
<path d="M145.134 27.6474C145.616 27.6474 146 27.2474 146 26.7674C146 26.2874 145.606 25.8875 145.134 25.8875C144.652 25.8875 144.269 26.2874 144.269 26.7674C144.269 27.2474 144.652 27.6474 145.134 27.6474Z" fill="white"/>
</svg>
