<svg width="47" height="13" viewBox="0 0 47 13" fill="none" xmlns="http://www.w3.org/2000/svg">
<path d="M2.82477 1.19666V8.54882C2.82477 9.42097 3.05676 10.0812 3.52074 10.5214C3.98472 10.9615 4.63926 11.1816 5.4678 11.1816C6.31291 11.1816 6.96745 10.9615 7.43143 10.5214C7.89541 10.0812 8.12741 9.42097 8.12741 8.54882V1.19666H10.0496V8.51622C10.0496 9.45358 9.84248 10.2524 9.42821 10.9044C9.01394 11.5565 8.45882 12.0456 7.75457 12.3635C7.05859 12.6814 6.28805 12.8444 5.44295 12.8444C4.59784 12.8444 3.83558 12.6814 3.13961 12.3635C2.45192 12.0456 1.8968 11.5565 1.4991 10.9044C1.09312 10.2524 0.894272 9.45358 0.894272 8.51622V1.19666H2.82477Z" fill="#465364" fill-opacity="0.8"/>
<path d="M14.4823 0.454956V12.7303H12.5601V0.454956H14.4823Z" fill="#465364" fill-opacity="0.8"/>
<path d="M16.9513 5.67975C17.3408 4.97061 17.871 4.4245 18.5338 4.0251C19.205 3.63386 19.9424 3.43823 20.7543 3.43823C21.4834 3.43823 22.1214 3.5768 22.6682 3.86208C23.2151 4.14737 23.6459 4.49786 23.9773 4.91356V3.58495H25.9161V12.7303H23.9773V11.3691C23.6542 11.8011 23.2068 12.1598 22.6434 12.445C22.08 12.7303 21.442 12.877 20.7212 12.877C19.9258 12.877 19.1884 12.6733 18.5256 12.2739C17.8627 11.8663 17.3325 11.3039 16.9513 10.5785C16.5619 9.85304 16.3714 9.02979 16.3714 8.11688C16.3714 7.20397 16.5619 6.38888 16.9513 5.67975ZM23.5796 6.51114C23.3145 6.04654 22.9665 5.69605 22.544 5.45152C22.1131 5.20699 21.6574 5.08473 21.1603 5.08473C20.6632 5.08473 20.2075 5.20699 19.7767 5.44337C19.3458 5.67975 19.0061 6.03024 18.741 6.48669C18.4758 6.94314 18.3433 7.48926 18.3433 8.12503C18.3433 8.76081 18.4758 9.30692 18.741 9.78783C19.0061 10.2606 19.3541 10.6274 19.7849 10.8719C20.2158 11.1246 20.6798 11.2468 21.1603 11.2468C21.6574 11.2468 22.1131 11.1246 22.544 10.8801C22.9748 10.6355 23.3145 10.2769 23.5796 9.81228C23.8448 9.33953 23.9773 8.79341 23.9773 8.15764C23.9773 7.52186 23.8448 6.97575 23.5796 6.51114Z" fill="#465364" fill-opacity="0.8"/>
<path d="M31.7076 3.86206C32.2793 3.57677 32.909 3.43821 33.605 3.43821C34.4252 3.43821 35.1709 3.63383 35.8337 4.01693C36.4966 4.40817 37.0185 4.95429 37.3997 5.67157C37.7808 6.38885 37.9714 7.20395 37.9714 8.11686C37.9714 9.02977 37.7808 9.85301 37.3997 10.5784C37.0185 11.3039 36.4883 11.8663 35.8254 12.2738C35.1543 12.6814 34.4169 12.877 33.605 12.877C32.8841 12.877 32.2462 12.7385 31.691 12.4613C31.1359 12.1842 30.6968 11.8337 30.3654 11.4017V12.7303H28.4432V0.454956H30.3654V4.95429C30.6968 4.50598 31.1442 4.14734 31.7076 3.86206ZM35.6183 6.48667C35.3532 6.03021 35.0052 5.67972 34.5743 5.44334C34.1435 5.20697 33.6795 5.0847 33.1824 5.0847C32.7018 5.0847 32.2379 5.20697 31.807 5.45149C31.3762 5.69602 31.0282 6.04651 30.7631 6.51112C30.4979 6.97572 30.3654 7.52184 30.3654 8.15761C30.3654 8.78524 30.4979 9.3395 30.7631 9.81226C31.0282 10.285 31.3762 10.6355 31.807 10.88C32.2379 11.1246 32.7018 11.2468 33.1824 11.2468C33.6795 11.2468 34.1435 11.1246 34.5743 10.8719C35.0052 10.6192 35.3532 10.2606 35.6183 9.7878C35.8834 9.31505 36.016 8.76078 36.016 8.12501C36.016 7.48923 35.8834 6.94312 35.6183 6.48667Z" fill="#465364" fill-opacity="0.8"/>
<path d="M41.2855 12.4939C40.7055 12.2331 40.2498 11.8826 39.9101 11.4343C39.5704 10.986 39.3964 10.4888 39.3716 9.93455H41.3601C41.3932 10.3258 41.5838 10.6437 41.9235 10.9045C42.2632 11.1653 42.694 11.2958 43.216 11.2958C43.7545 11.2958 44.1771 11.1898 44.4754 10.986C44.7736 10.7822 44.9228 10.5214 44.9228 10.1954C44.9228 9.85304 44.7571 9.60036 44.4257 9.42919C44.0942 9.26617 43.564 9.0787 42.8514 8.88307C42.1555 8.6956 41.5838 8.50813 41.1447 8.33696C40.7055 8.15764 40.3244 7.88866 40.0096 7.52186C39.6864 7.15507 39.529 6.67416 39.529 6.07914C39.529 5.59009 39.6781 5.14993 39.9681 4.74239C40.2581 4.33484 40.6807 4.01695 41.2275 3.78872C41.7743 3.5605 42.404 3.43823 43.1083 3.43823C44.1688 3.43823 45.0139 3.69906 45.6602 4.22888C46.3064 4.75869 46.6544 5.46782 46.6959 6.38073H44.7736C44.7405 5.97318 44.5748 5.64714 44.2682 5.40261C43.9617 5.15808 43.5557 5.03582 43.0337 5.03582C42.5283 5.03582 42.1389 5.13363 41.8738 5.3211C41.6004 5.50858 41.4678 5.76126 41.4678 6.07099C41.4678 6.31552 41.5589 6.5193 41.7412 6.68231C41.9235 6.84533 42.1389 6.97575 42.3957 7.07356C42.6526 7.17137 43.0337 7.28549 43.5391 7.4322C44.2102 7.61152 44.7654 7.79084 45.2045 7.97017C45.6353 8.14949 46.0082 8.41847 46.323 8.77711C46.6379 9.1276 46.8036 9.60036 46.8119 10.1872C46.8119 10.7089 46.6627 11.1735 46.3727 11.581C46.0827 11.9886 45.6685 12.3146 45.1299 12.5429C44.5914 12.7711 43.97 12.8933 43.2491 12.8933C42.52 12.877 41.8655 12.7548 41.2855 12.4939Z" fill="#465364" fill-opacity="0.8"/>
</svg>
