<svg width="46" height="13" viewBox="0 0 46 13" fill="none" xmlns="http://www.w3.org/2000/svg">
<path d="M6.07448 12.125L3.63786 7.89472H2.30956V12.125H0.575165V1.54089H4.2301C5.0423 1.54089 5.7276 1.68472 6.29446 1.96392C6.86131 2.24311 7.27587 2.6323 7.55507 3.10608C7.83426 3.57987 7.97809 4.11288 7.97809 4.70511C7.97809 5.39887 7.77504 6.02495 7.3774 6.58334C6.97976 7.15019 6.36214 7.53092 5.52455 7.73397L8.1473 12.1165H6.07448V12.125ZM2.31803 6.5072H4.23856C4.89002 6.5072 5.38072 6.34645 5.71068 6.01649C6.04064 5.69499 6.20139 5.25505 6.20139 4.70511C6.20139 4.15518 6.04064 3.73216 5.71068 3.41912C5.38918 3.10608 4.89001 2.95379 4.2301 2.95379H2.30956V6.5072H2.31803Z" fill="#465364" fill-opacity="0.8"/>
<path d="M10.2963 2.30233C10.0847 2.09082 9.97476 1.82854 9.97476 1.50704C9.97476 1.18554 10.0847 0.93173 10.2963 0.711757C10.5078 0.491785 10.77 0.390259 11.0915 0.390259C11.3961 0.390259 11.6584 0.500245 11.8699 0.711757C12.0814 0.923269 12.1914 1.18554 12.1914 1.50704C12.1914 1.82854 12.0814 2.08236 11.8699 2.30233C11.6584 2.5223 11.3961 2.62383 11.0915 2.62383C10.77 2.62383 10.5078 2.51384 10.2963 2.30233ZM11.9376 3.73215V12.125H10.2032V3.73215H11.9376Z" fill="#465364" fill-opacity="0.8"/>
<path d="M20.2289 4.01124C20.7534 4.28198 21.1595 4.68808 21.4556 5.22955C21.7518 5.77102 21.8956 6.41402 21.8956 7.17546V12.1248H20.1781V7.43774C20.1781 6.68476 19.992 6.10944 19.6112 5.7118C19.239 5.31416 18.7229 5.11111 18.0714 5.11111C17.42 5.11111 16.9039 5.31416 16.5232 5.7118C16.1425 6.10944 15.9479 6.68476 15.9479 7.43774V12.1248H14.2219V3.73205H15.9563V4.68808C16.244 4.3412 16.6078 4.07047 17.0477 3.88434C17.4877 3.69821 17.9615 3.59668 18.4606 3.59668C19.1121 3.59668 19.7043 3.73205 20.2289 4.01124Z" fill="#465364" fill-opacity="0.8"/>
<path d="M27.6233 5.15346H26.0666V12.1249H24.3153V5.15346H23.3254V3.7321H24.3153V3.13987C24.3153 2.17537 24.5691 1.47315 25.0852 1.03321C25.6013 0.593264 26.405 0.373291 27.4964 0.373291V1.82003C26.9719 1.82003 26.5996 1.92156 26.3881 2.11615C26.1766 2.31074 26.0666 2.65762 26.0666 3.13987V3.7321H27.6233V5.15346Z" fill="#465364" fill-opacity="0.8"/>
<path d="M29.1124 5.65258C29.4593 5.00112 29.9415 4.49349 30.5422 4.13815C31.1429 3.78281 31.8113 3.59668 32.5473 3.59668C33.2073 3.59668 33.7826 3.72359 34.2733 3.98586C34.764 4.24814 35.1616 4.56964 35.4577 4.95036V3.73205H37.2091V12.1248H35.4577V10.8727C35.1616 11.2703 34.764 11.6003 34.2563 11.8626C33.7487 12.1248 33.1734 12.2602 32.5219 12.2602C31.8028 12.2602 31.1429 12.0741 30.5422 11.7018C29.9415 11.3296 29.4677 10.8135 29.1208 10.1451C28.774 9.47672 28.5963 8.72373 28.5963 7.88615C28.5963 7.04856 28.757 6.30404 29.1124 5.65258ZM35.0939 6.41402C34.857 5.991 34.544 5.66104 34.1548 5.44107C33.7656 5.22109 33.3511 5.10265 32.9027 5.10265C32.4543 5.10265 32.0397 5.21263 31.6505 5.43261C31.2698 5.65258 30.9652 5.96562 30.7199 6.38864C30.483 6.81166 30.3645 7.31083 30.3645 7.88615C30.3645 8.46146 30.483 8.96909 30.7199 9.40903C30.9568 9.84898 31.2698 10.1789 31.6674 10.4074C32.0651 10.6358 32.4712 10.7458 32.9111 10.7458C33.3595 10.7458 33.7741 10.6358 34.1633 10.4074C34.5525 10.1874 34.8655 9.85744 35.1024 9.42595C35.3393 8.99447 35.4577 8.48684 35.4577 7.91153C35.4493 7.34468 35.3308 6.83705 35.0939 6.41402Z" fill="#465364" fill-opacity="0.8"/>
<path d="M41.2193 0.855591V12.125H39.4849V0.855591H41.2193Z" fill="#465364" fill-opacity="0.8"/>
<path d="M45.2465 0.855591V12.125H43.5121V0.855591H45.2465Z" fill="#465364" fill-opacity="0.8"/>
</svg>
