<svg version="1.1" id="Layer_1" xmlns="http://www.w3.org/2000/svg" xmlns:xlink="http://www.w3.org/1999/xlink" x="0px" y="0px"
	 width="100%" viewBox="0 0 52 60" enable-background="new 0 0 52 60" xml:space="preserve">
<path fill="#000000" opacity="1.000000" stroke="none" 
	d="
M16.000000,61.000000 
	C11.078642,61.000000 6.157284,61.000000 1.000000,61.000000 
	C1.000000,56.651215 1.000000,52.299736 1.247717,47.131496 
	C2.122458,46.843323 2.809186,47.315987 3.365959,47.910381 
	C5.537578,50.228737 8.218612,51.414165 10.480922,48.723675 
	C12.540529,46.274261 13.310862,43.035080 9.999203,40.570293 
	C7.084350,38.400841 4.701837,38.960041 2.876297,42.176434 
	C2.606062,42.652557 1.642691,42.735275 1.000000,43.000000 
	C1.000000,40.958332 1.000000,38.916668 1.429270,36.437531 
	C3.130095,36.000065 4.401649,36.000065 5.495872,36.000065 
	C7.167812,31.069851 4.929389,29.817225 1.000000,30.000000 
	C1.000000,20.420650 1.000000,10.841299 1.000000,1.000000 
	C7.351585,1.000000 13.706750,1.000000 20.524776,1.380131 
	C21.125942,3.466860 20.828365,5.406160 21.568058,6.791698 
	C22.003109,7.606611 25.076822,8.100767 25.259005,7.777740 
	C26.129732,6.233873 26.442068,4.367473 26.896549,2.601235 
	C27.027502,2.092313 26.970715,1.535082 27.000000,1.000000 
	C30.030594,1.000000 33.061188,1.000000 36.887901,1.242300 
	C37.157341,2.110795 36.697662,2.812433 36.092304,3.350042 
	C33.558559,5.600224 33.066692,7.747543 35.777363,10.366388 
	C37.711369,12.234874 39.085003,12.453293 41.119972,10.473259 
	C43.741150,7.922842 43.610039,5.815588 41.035828,3.431253 
	C40.445965,2.884898 40.332642,1.824059 40.000000,1.000000 
	C44.252266,1.000000 48.504528,1.000000 53.000000,1.000000 
	C53.000000,4.678430 53.000000,8.360040 52.688686,12.843695 
	C49.479221,11.495768 46.505890,10.556207 44.039440,14.062133 
	C41.667915,17.433142 42.863647,20.682589 46.106953,22.293278 
	C47.911121,23.189266 50.670898,22.161022 53.000000,22.000000 
	C53.000000,34.898895 53.000000,47.797791 53.000000,61.000000 
	C47.316734,61.000000 41.628078,61.000000 35.166603,60.664238 
	C34.594524,59.383976 35.283123,58.095837 34.905025,57.559059 
	C33.746132,55.913795 32.154125,53.324341 30.773949,53.350983 
	C28.112207,53.402370 27.164902,55.852962 27.852108,58.601856 
	C28.043093,59.365818 27.958282,60.198723 28.000000,61.000000 
	C24.969406,61.000000 21.938814,61.000000 18.114689,60.746078 
	C18.077007,59.909428 18.801157,59.278973 19.594194,58.752239 
	C23.030323,56.469971 22.764589,53.283321 20.700983,50.674446 
	C18.757591,48.217560 15.440274,48.121372 13.393396,50.565811 
	C11.229556,53.149925 10.985915,56.263260 14.259332,58.707146 
	C14.998279,59.258835 15.427957,60.224758 16.000000,61.000000 
M40.050724,45.952919 
	C40.885212,48.303177 41.181057,51.202427 42.781155,52.772369 
	C43.582657,53.558762 47.596817,52.584106 48.672554,51.227783 
	C50.342960,49.121693 50.112400,46.088745 47.537971,44.081394 
	C44.796581,41.943863 42.426239,42.745426 40.050724,45.952919 
M8.023589,11.493822 
	C9.344110,12.309471 10.598499,13.341471 12.034197,13.780333 
	C12.370161,13.883031 13.842906,11.975176 13.840963,10.994224 
	C13.839021,10.014473 12.272623,8.113911 12.032570,8.210406 
	C10.610865,8.781899 9.375476,9.816890 8.023589,11.493822 
z"/>
<path fill="#FF7628" opacity="1.000000" stroke="none" 
	d="
M53.000000,21.550020 
	C50.670898,22.161022 47.911121,23.189266 46.106953,22.293278 
	C42.863647,20.682589 41.667915,17.433142 44.039440,14.062133 
	C46.505890,10.556207 49.479221,11.495768 52.688686,13.322870 
	C53.000000,15.700013 53.000000,18.400026 53.000000,21.550020 
z"/>
<path fill="#FF7628" opacity="1.000000" stroke="none" 
	d="
M1.000000,43.399998 
	C1.642691,42.735275 2.606062,42.652557 2.876297,42.176434 
	C4.701837,38.960041 7.084350,38.400841 9.999203,40.570293 
	C13.310862,43.035080 12.540529,46.274261 10.480922,48.723675 
	C8.218612,51.414165 5.537578,50.228737 3.365959,47.910381 
	C2.809186,47.315987 2.122458,46.843323 1.247717,46.657368 
	C1.000000,45.933331 1.000000,44.866661 1.000000,43.399998 
z"/>
<path fill="#FF7628" opacity="1.000000" stroke="none" 
	d="
M16.333332,61.000000 
	C15.427957,60.224758 14.998279,59.258835 14.259332,58.707146 
	C10.985915,56.263260 11.229556,53.149925 13.393396,50.565811 
	C15.440274,48.121372 18.757591,48.217560 20.700983,50.674446 
	C22.764589,53.283321 23.030323,56.469971 19.594194,58.752239 
	C18.801157,59.278973 18.077007,59.909428 17.660580,60.746078 
	C17.555555,61.000000 17.111111,61.000000 16.333332,61.000000 
z"/>
<path fill="#FF7628" opacity="1.000000" stroke="none" 
	d="
M39.625000,1.000000 
	C40.332642,1.824059 40.445965,2.884898 41.035828,3.431253 
	C43.610039,5.815588 43.741150,7.922842 41.119972,10.473259 
	C39.085003,12.453293 37.711369,12.234874 35.777363,10.366388 
	C33.066692,7.747543 33.558559,5.600224 36.092304,3.350042 
	C36.697662,2.812433 37.157341,2.110795 37.342010,1.242300 
	C37.750000,1.000000 38.500000,1.000000 39.625000,1.000000 
z"/>
<path fill="#FF7628" opacity="1.000000" stroke="none" 
	d="
M28.437500,61.000000 
	C27.958282,60.198723 28.043093,59.365818 27.852108,58.601856 
	C27.164902,55.852962 28.112207,53.402370 30.773949,53.350983 
	C32.154125,53.324341 33.746132,55.913795 34.905025,57.559059 
	C35.283123,58.095837 34.594524,59.383976 34.696892,60.664238 
	C32.958332,61.000000 30.916666,61.000000 28.437500,61.000000 
z"/>
<path fill="#FF7628" opacity="1.000000" stroke="none" 
	d="
M26.571537,1.000000 
	C26.970715,1.535082 27.027502,2.092313 26.896549,2.601235 
	C26.442068,4.367473 26.129732,6.233873 25.259005,7.777740 
	C25.076822,8.100767 22.003109,7.606611 21.568058,6.791698 
	C20.828365,5.406160 21.125942,3.466860 20.993820,1.380131 
	C22.714357,1.000000 24.428717,1.000000 26.571537,1.000000 
z"/>
<path fill="#FF7628" opacity="1.000000" stroke="none" 
	d="
M1.000000,30.428463 
	C4.929389,29.817225 7.167812,31.069851 5.495872,36.000065 
	C4.401649,36.000065 3.130095,36.000065 1.429270,36.000031 
	C1.000000,34.285641 1.000000,32.571281 1.000000,30.428463 
z"/>
<path fill="#FF7628" opacity="1.000000" stroke="none" 
	d="
M40.196732,45.566135 
	C42.426239,42.745426 44.796581,41.943863 47.537971,44.081394 
	C50.112400,46.088745 50.342960,49.121693 48.672554,51.227783 
	C47.596817,52.584106 43.582657,53.558762 42.781155,52.772369 
	C41.181057,51.202427 40.885212,48.303177 40.196732,45.566135 
z"/>
<path fill="#FF7628" opacity="1.000000" stroke="none" 
	d="
M8.050508,11.094912 
	C9.375476,9.816890 10.610865,8.781899 12.032570,8.210406 
	C12.272623,8.113911 13.839021,10.014473 13.840963,10.994224 
	C13.842906,11.975176 12.370161,13.883031 12.034197,13.780333 
	C10.598499,13.341471 9.344110,12.309471 8.050508,11.094912 
z"/>
</svg>