<svg width="29" height="21" viewBox="0 0 29 21" fill="none" xmlns="http://www.w3.org/2000/svg">
<path fill-rule="evenodd" clip-rule="evenodd" d="M11.6757 16.6344L9.96401 18.3461C11.3105 19.1335 12.8739 19.5785 14.5513 19.5785C16.2173 19.5785 17.7921 19.1335 19.1386 18.3461L17.4269 16.6344C16.5597 17.0452 15.5783 17.2735 14.5513 17.2735C13.5243 17.262 12.5543 17.0338 11.6757 16.6344ZM5.69623 -0.00305176L10.6373 4.93798C8.34362 6.55837 7.28239 9.43398 7.96706 12.1498C8.06976 12.5721 8.2181 12.9714 8.40068 13.3594L6.68901 15.0711C6.48361 14.7174 6.30103 14.3522 6.14127 13.9756C4.89745 10.9745 5.36531 7.49408 7.35085 4.92657L5.70765 3.28336C2.30712 7.44844 2.30712 13.5306 5.70765 17.6957C8.65173 14.7516 11.6072 11.7961 14.5513 8.85201C17.4954 11.7961 20.4509 14.7516 23.3949 17.6957C26.7955 13.5306 26.7955 7.44844 23.3949 3.28336L21.7517 4.92657C23.7487 7.50549 24.2051 10.9745 22.9499 13.9756C22.7902 14.3522 22.6076 14.7174 22.4022 15.0711L20.6905 13.3594C20.8731 12.9714 21.01 12.5721 21.1241 12.1498C21.8088 9.42257 20.7476 6.55837 18.4539 4.93798L23.4064 -0.00305176C29.8422 5.42866 29.8879 15.4933 23.4064 20.9707C20.4509 18.0152 17.5068 15.0711 14.5513 12.1156C11.5958 15.0711 8.65173 18.0152 5.69623 20.9707C-0.785304 15.5047 -0.728249 5.42866 5.69623 -0.00305176Z" fill="#465364" fill-opacity="0.8"/>
</svg>
