<svg width="29" height="25" viewBox="0 0 29 25" fill="none" xmlns="http://www.w3.org/2000/svg">
<path d="M26.2611 11.7516C27.3899 11.7516 28.2953 12.657 28.2953 13.7858C28.2953 14.9146 27.3899 15.82 26.2611 15.82C25.1323 15.82 24.2269 14.9146 24.2269 13.7858C24.2269 13.4095 24.3327 13.045 24.5091 12.7393L22.0163 8.67085C21.9693 8.67085 21.9223 8.67085 21.8752 8.67085C21.7929 8.67085 21.7224 8.67085 21.6401 8.65909L17.407 14.8793C17.5599 15.1615 17.6422 15.4907 17.6422 15.8317C17.6422 16.9605 16.7368 17.8659 15.608 17.8659C14.4792 17.8659 13.5738 16.9605 13.5738 15.8317C13.5738 15.5495 13.6326 15.2908 13.7266 15.0439L10.8223 11.5399C10.693 11.5752 10.5519 11.5869 10.4108 11.5869C10.352 11.5869 10.2814 11.5869 10.2226 11.5752L3.88486 21.3582C4.04948 21.6521 4.14354 21.9931 4.14354 22.3576C4.14354 23.4865 3.22639 24.3918 2.10934 24.3918C0.99229 24.3918 0.0751343 23.4865 0.0751343 22.3576C0.0751343 21.2288 0.99229 20.3234 2.10934 20.3234C2.16813 20.3234 2.23868 20.3234 2.29747 20.3352L8.63526 10.5522C8.47064 10.2582 8.37657 9.91724 8.37657 9.55273C8.37657 8.42392 9.28197 7.51853 10.4108 7.51853C11.5396 7.51853 12.445 8.42392 12.445 9.55273C12.445 9.83493 12.3862 10.0936 12.2921 10.3405L15.1965 13.8563C15.3376 13.8328 15.4787 13.8093 15.6198 13.8093C15.7021 13.8093 15.7726 13.8093 15.8549 13.821L20.0879 7.60084C19.9351 7.31863 19.8528 6.9894 19.8528 6.6484C19.8528 5.5196 20.7582 4.6142 21.887 4.6142C23.0158 4.6142 23.9212 5.5196 23.9212 6.6484C23.9212 7.02467 23.8154 7.38918 23.639 7.6949L26.1435 11.7633C26.167 11.7516 26.2141 11.7516 26.2611 11.7516ZM22.1692 16.596C22.3808 16.1139 22.9335 15.9023 23.4156 16.1139C23.8977 16.3256 24.1093 16.8782 23.8977 17.3603C22.957 19.4768 21.4284 21.2641 19.5 22.5105C17.6422 23.7216 15.4199 24.4271 13.0329 24.4271C11.7748 24.4271 10.5636 24.2272 9.41131 23.8627C8.22371 23.4865 7.13018 22.922 6.14247 22.2165C5.71917 21.9108 5.61335 21.3229 5.91906 20.8996C6.22478 20.4763 6.8127 20.3705 7.23601 20.6762C8.07085 21.2759 8.99977 21.7462 9.98748 22.0637C10.9399 22.3694 11.9629 22.534 13.0329 22.534C15.0436 22.534 16.9132 21.9461 18.477 20.9231C20.0879 19.8766 21.3814 18.3715 22.1692 16.596ZM3.52035 15.5966C3.67321 16.0904 3.40276 16.6195 2.90891 16.7842C2.41506 16.937 1.88593 16.6666 1.72131 16.1727C1.53318 15.5966 1.39208 14.9969 1.29801 14.3972C1.20394 13.7858 1.15691 13.1743 1.15691 12.5629C1.15691 9.28229 2.48561 6.31917 4.6374 4.16738C6.78919 2.01559 9.75231 0.68689 13.0329 0.68689C14.2793 0.68689 15.4904 0.886783 16.631 1.23954C17.7951 1.60405 18.8886 2.15669 19.8881 2.8622C20.3114 3.15616 20.4172 3.74408 20.1115 4.17914C19.8175 4.60244 19.2296 4.70827 18.7945 4.40255C17.9714 3.82639 17.0543 3.35605 16.0548 3.05033C15.1024 2.74461 14.0912 2.57999 13.0329 2.57999C10.2814 2.57999 7.77689 3.69704 5.97786 5.50784C4.16706 7.31863 3.05001 9.81142 3.05001 12.5629C3.05001 13.1038 3.08529 13.6211 3.1676 14.1032C3.24991 14.6206 3.36749 15.1145 3.52035 15.5966Z" fill="#465364" fill-opacity="0.8"/>
</svg>
