<svg width="21" height="18" viewBox="0 0 21 18" fill="none" xmlns="http://www.w3.org/2000/svg">
<path fill-rule="evenodd" clip-rule="evenodd" d="M3.78427 0.962036C3.78427 2.95025 2.17678 4.55774 0.188568 4.55774V7.18049C3.62352 7.18049 6.40702 4.39699 6.40702 0.962036H3.78427ZM10.3411 10.2601C9.83352 10.9708 9.26667 11.6222 8.64059 12.2229C6.28858 13.9996 3.36125 15.0487 0.188568 15.0487V17.6546L0.459304 17.6715C4.17346 17.6123 7.59149 16.3432 10.3327 14.2365C13.0823 16.3432 16.5004 17.6123 20.2061 17.6715L20.4937 17.663V15.0487C17.321 15.0487 14.3937 13.9996 12.0417 12.2314C11.4156 11.6307 10.8488 10.9708 10.3411 10.2601ZM10.1889 6.57134C10.2396 6.47827 10.2904 6.38521 10.3411 6.29214C10.3919 6.38521 10.4427 6.47827 10.4934 6.57134C12.4563 10.0655 16.2043 12.426 20.4937 12.426V9.80324C15.612 9.80324 11.6525 5.84374 11.6525 0.962036H9.02977C9.02977 2.95025 8.36986 4.78617 7.26999 6.2583C5.65404 8.41572 3.08205 9.80324 0.188568 9.80324V12.426C3.42047 12.426 6.3478 11.0892 8.42908 8.93181C9.11438 8.22959 9.70661 7.43431 10.1889 6.57134ZM14.2753 0.962036C14.2753 4.39699 17.0588 7.18049 20.4937 7.18049V4.55774C18.5055 4.55774 16.898 2.95025 16.898 0.962036H14.2753Z" fill="#465364" fill-opacity="0.8"/>
</svg>
