<svg width="21" height="20" viewBox="0 0 21 20" fill="none" xmlns="http://www.w3.org/2000/svg">
<path fill-rule="evenodd" clip-rule="evenodd" d="M18.4266 2.50944H11.7983V18.0615C11.7983 18.6646 11.3012 19.1455 10.6964 19.1455C10.0832 19.1455 9.59441 18.6565 9.59441 18.0615V2.50944H2.9661V15.877C2.9661 16.4802 3.44665 16.9774 4.06806 16.9774C4.68118 16.9774 5.17001 16.4883 5.17001 15.8933V4.69389H7.38221V15.8933C7.38221 17.6947 5.89913 19.1537 4.06806 19.1537C2.23699 19.1537 0.753906 17.6947 0.753906 15.8933V0.33313C7.38221 0.33313 14.0105 0.33313 20.6388 0.33313V15.8852C20.6388 17.6865 19.1557 19.1455 17.3247 19.1455C15.4936 19.1455 14.0105 17.6865 14.0105 15.8852V4.67759H16.2227V15.877C16.2227 16.4802 16.7198 16.9611 17.3247 16.9611C17.9378 16.9611 18.4266 16.472 18.4266 15.877V2.50944Z" fill="#465364" fill-opacity="0.8"/>
</svg>
